<svg width="139" height="50" viewBox="0 0 139 50" fill="none" xmlns="http://www.w3.org/2000/svg">
<path d="M62.1764 26.8339L59.952 20.8342C59.8625 20.5888 59.5135 20.5888 59.4227 20.8342L57.1982 26.8339C57.1823 26.8765 57.177 26.9224 57.1827 26.9675C57.1884 27.0127 57.2049 27.0557 57.231 27.0931C57.257 27.1305 57.2917 27.161 57.3321 27.1819C57.3725 27.2029 57.4174 27.2137 57.4629 27.2135H61.9118C61.9572 27.2137 62.0022 27.2029 62.0425 27.1819C62.0829 27.161 62.1176 27.1305 62.1437 27.0931C62.1697 27.0557 62.1863 27.0127 62.192 26.9675C62.1977 26.9224 62.1923 26.8765 62.1764 26.8339ZM63.2042 30.205H56.1831C56.1255 30.2049 56.0692 30.2225 56.0219 30.2554C55.9746 30.2883 55.9385 30.335 55.9185 30.3892L54.534 34.1221C54.5141 34.1762 54.478 34.2229 54.4307 34.2558C54.3834 34.2888 54.3271 34.3064 54.2694 34.3062H51.2204C51.1741 34.3065 51.1286 34.2953 51.0876 34.2737C51.0467 34.2522 51.0118 34.2209 50.9858 34.1826C50.9599 34.1442 50.9438 34.1002 50.939 34.0541C50.9342 34.0081 50.9409 33.9617 50.9583 33.9188L57.9896 16.4301C58.0106 16.3778 58.0468 16.3331 58.0935 16.3016C58.1402 16.2702 58.1953 16.2535 58.2516 16.2537H61.1716C61.2279 16.2535 61.283 16.2702 61.3297 16.3016C61.3764 16.3331 61.4126 16.3778 61.4336 16.4301L68.4649 33.9188C68.4824 33.9617 68.489 34.0081 68.4842 34.0541C68.4794 34.1002 68.4633 34.1442 68.4374 34.1826C68.4115 34.2209 68.3766 34.2522 68.3356 34.2737C68.2947 34.2953 68.2491 34.3065 68.2028 34.3062H65.1321C65.0744 34.3064 65.0181 34.2888 64.9708 34.2558C64.9235 34.2229 64.8874 34.1762 64.8675 34.1221L63.483 30.3892C63.463 30.335 63.4269 30.2883 63.3796 30.2554C63.3323 30.2225 63.276 30.2049 63.2183 30.205M69.8712 22.3914H72.4791C72.5163 22.3912 72.5531 22.3984 72.5875 22.4125C72.6218 22.4267 72.653 22.4475 72.6793 22.4737C72.7056 22.5 72.7264 22.5312 72.7405 22.5656C72.7547 22.6 72.7618 22.6368 72.7616 22.6739V34.0263C72.7618 34.0634 72.7547 34.1002 72.7405 34.1345C72.7264 34.1689 72.7056 34.2001 72.6793 34.2264C72.653 34.2526 72.6218 34.2735 72.5875 34.2876C72.5531 34.3017 72.5163 34.309 72.4791 34.3088H69.8712C69.8341 34.309 69.7972 34.3017 69.7628 34.2876C69.7285 34.2735 69.6973 34.2526 69.671 34.2264C69.6448 34.2001 69.624 34.1689 69.6098 34.1345C69.5957 34.1002 69.5885 34.0634 69.5887 34.0263V22.6483C69.5885 22.6112 69.5957 22.5743 69.6098 22.54C69.624 22.5057 69.6448 22.4745 69.671 22.4482C69.6973 22.4219 69.7285 22.4011 69.7628 22.3869C69.7972 22.3729 69.8341 22.3657 69.8712 22.3658M82.2718 25.1272C82.272 25.1643 82.2648 25.2012 82.2506 25.2355C82.2365 25.2698 82.2157 25.3011 82.1894 25.3274C82.1631 25.3536 82.132 25.3744 82.0976 25.3886C82.0632 25.4027 82.0264 25.4098 81.9893 25.4097H81.91C80.6316 25.4097 79.6727 25.7191 79.0719 26.3378C78.471 26.9566 78.1693 27.9793 78.1693 29.406V33.9981C78.1695 34.0353 78.1623 34.0721 78.1482 34.1064C78.134 34.1407 78.1133 34.172 78.087 34.1983C78.0607 34.2245 78.0295 34.2454 77.9952 34.2595C77.9608 34.2736 77.924 34.2808 77.8868 34.2807H75.3045C75.2673 34.2808 75.2305 34.2736 75.1961 34.2595C75.1617 34.2454 75.1306 34.2245 75.1043 34.1983C75.078 34.172 75.0572 34.1407 75.0431 34.1064C75.0289 34.0721 75.0217 34.0353 75.0219 33.9981V22.6612C75.0217 22.624 75.0289 22.5871 75.0431 22.5528C75.0572 22.5185 75.078 22.4873 75.1043 22.4609C75.1306 22.4347 75.1617 22.4139 75.1961 22.3997C75.2305 22.3856 75.2673 22.3784 75.3045 22.3786H77.8613C77.8984 22.3784 77.9352 22.3856 77.9696 22.3997C78.004 22.4139 78.0351 22.4347 78.0614 22.4609C78.0877 22.4873 78.1085 22.5185 78.1226 22.5528C78.1368 22.5871 78.144 22.624 78.1438 22.6612V24.906H78.195C78.5043 23.9779 78.994 23.2645 79.6651 22.7659C80.3363 22.2674 81.1608 22.0181 82.1401 22.0181H82.268L82.2718 25.1272ZM89.4025 25.0224C89.3661 25.0222 89.3287 25.0294 89.2949 25.0435C89.2602 25.0577 89.2291 25.0784 89.2024 25.1047C89.1766 25.131 89.1553 25.1622 89.141 25.1965C89.1277 25.231 89.1197 25.2677 89.1206 25.3049V30.0261C89.1206 30.508 89.2149 30.8506 89.4043 31.0577C89.5929 31.2649 89.9193 31.3672 90.3836 31.3672H90.6425C90.6798 31.367 90.7172 31.3742 90.751 31.3883C90.7857 31.4025 90.8168 31.4232 90.8426 31.4495C90.8693 31.4758 90.8898 31.507 90.904 31.5413C90.9182 31.5757 90.9253 31.6125 90.9253 31.6497V34.039C90.9253 34.0762 90.9182 34.113 90.904 34.1473C90.8898 34.1817 90.8693 34.2129 90.8426 34.2392C90.8168 34.2655 90.7857 34.2863 90.751 34.3004C90.7172 34.3146 90.6798 34.3218 90.6425 34.3216H89.5306C88.3801 34.3216 87.4928 34.0249 86.8741 33.4317C86.2554 32.8385 85.946 31.9578 85.946 30.788V25.3189C85.9461 25.2818 85.939 25.245 85.9248 25.2106C85.9107 25.1763 85.8899 25.145 85.8635 25.1188C85.8373 25.0926 85.8061 25.0717 85.7718 25.0576C85.7374 25.0435 85.7006 25.0363 85.6634 25.0364H84.036C83.9988 25.0366 83.962 25.0294 83.9277 25.0153C83.8933 25.0011 83.8621 24.9803 83.8359 24.9541C83.8095 24.9277 83.7888 24.8965 83.7747 24.8622C83.7605 24.8278 83.7533 24.791 83.7535 24.7538V22.6612C83.7533 22.624 83.7605 22.5871 83.7747 22.5528C83.7888 22.5185 83.8095 22.4873 83.8359 22.4609C83.8621 22.4347 83.8933 22.4139 83.9277 22.3997C83.962 22.3856 83.9988 22.3784 84.036 22.3786H85.6634C85.7006 22.3787 85.7374 22.3715 85.7718 22.3574C85.8061 22.3433 85.8373 22.3225 85.8635 22.2962C85.8899 22.27 85.9107 22.2387 85.9248 22.2044C85.939 22.1701 85.9461 22.1332 85.946 22.0961V17.8773C85.9458 17.8401 85.9529 17.8033 85.9671 17.769C85.9812 17.7347 86.002 17.7034 86.0284 17.6771C86.0546 17.6509 86.0858 17.6301 86.1202 17.6159C86.1545 17.6018 86.1913 17.5946 86.2285 17.5947H88.8368C88.8733 17.5946 88.9107 17.6018 88.9445 17.6159C88.9791 17.6301 89.0103 17.6509 89.037 17.6771C89.0628 17.7034 89.0841 17.7347 89.0974 17.769C89.1117 17.8033 89.1188 17.8401 89.1188 17.8773V22.0961C89.1188 22.1332 89.1259 22.1701 89.1401 22.2044C89.1544 22.2387 89.1748 22.27 89.2015 22.2962C89.2273 22.3225 89.2584 22.3433 89.2931 22.3574C89.3278 22.3715 89.3643 22.3787 89.4016 22.3786H91.2874C91.3247 22.3784 91.3612 22.3856 91.3959 22.3997C91.4297 22.4139 91.4608 22.4347 91.4875 22.4609C91.5133 22.4873 91.5346 22.5185 91.5489 22.5528C91.5631 22.5871 91.5702 22.624 91.5693 22.6612V24.7538C91.5702 24.791 91.5631 24.8278 91.5489 24.8622C91.5346 24.8965 91.5133 24.9277 91.4875 24.9541C91.4608 24.9803 91.4297 25.0011 91.3959 25.0153C91.3612 25.0294 91.3247 25.0366 91.2874 25.0364L89.4025 25.0224ZM101.343 30.7471C101.936 30.1284 102.233 29.3204 102.233 28.3233C102.233 27.3261 101.936 26.5181 101.343 25.8993C100.75 25.2806 99.9714 24.9712 99.009 24.9712C98.0465 24.9712 97.27 25.2806 96.6741 25.8993C96.079 26.5181 95.7846 27.3261 95.7846 28.3233C95.7846 29.3204 96.0817 30.1284 96.6741 30.7471C97.2674 31.3658 98.0448 31.6752 99.009 31.6752C99.9732 31.6752 100.75 31.3658 101.343 30.7471ZM95.3345 33.9176C94.4459 33.4073 93.7245 32.6501 93.2585 31.7379C92.7506 30.7842 92.4979 29.6451 92.4979 28.3207C92.4979 26.9962 92.7506 25.8584 93.2585 24.9035C93.7663 23.9485 94.4575 23.2237 95.3345 22.7238C96.2142 22.2243 97.2104 21.9663 98.2227 21.9759C99.1504 21.9759 99.9456 22.1549 100.608 22.5179C101.27 22.881 101.797 23.3872 102.193 24.052H102.245V22.6612C102.244 22.624 102.251 22.5871 102.265 22.5528C102.28 22.5185 102.301 22.4873 102.327 22.4609C102.353 22.4347 102.385 22.4139 102.418 22.3997C102.453 22.3856 102.49 22.3784 102.527 22.3786H105.109C105.146 22.3784 105.184 22.3856 105.218 22.3997C105.252 22.4139 105.283 22.4347 105.309 22.4609C105.336 22.4873 105.356 22.5185 105.371 22.5528C105.385 22.5871 105.392 22.624 105.392 22.6612V34.0135C105.392 34.0506 105.385 34.0874 105.371 34.1218C105.356 34.1561 105.336 34.1874 105.309 34.2136C105.283 34.2398 105.252 34.2607 105.218 34.2748C105.184 34.2889 105.146 34.2961 105.109 34.296H102.527C102.49 34.2961 102.453 34.2889 102.418 34.2748C102.385 34.2607 102.353 34.2398 102.327 34.2136C102.301 34.1874 102.28 34.1561 102.265 34.1218C102.251 34.0874 102.244 34.0506 102.245 34.0135V32.6072H102.193C101.81 33.2464 101.269 33.768 100.608 34.1413C99.9474 34.5146 99.1504 34.6833 98.2227 34.6833C97.174 34.6833 96.2115 34.434 95.3336 33.9355M116.131 30.765C116.724 30.1463 117.02 29.3382 117.02 28.3411C117.02 27.3439 116.724 26.536 116.131 25.9173C115.537 25.2985 114.759 24.9891 113.797 24.9891C112.833 24.9891 112.055 25.2985 111.462 25.9173C110.868 26.536 110.572 27.3439 110.572 28.3411C110.572 29.3382 110.868 30.1463 111.462 30.765C112.055 31.3838 112.832 31.6932 113.797 31.6932C114.76 31.6932 115.537 31.3838 116.131 30.765ZM112.211 34.1439C111.555 33.7889 111.006 33.2633 110.625 32.6225H110.573V34.0288C110.573 34.0659 110.566 34.1028 110.552 34.1371C110.538 34.1714 110.517 34.2027 110.491 34.229C110.465 34.2552 110.434 34.276 110.399 34.2902C110.365 34.3043 110.328 34.3115 110.291 34.3114H107.683C107.646 34.3115 107.609 34.3043 107.575 34.2902C107.54 34.276 107.509 34.2552 107.483 34.229C107.456 34.2027 107.436 34.1714 107.422 34.1371C107.407 34.1028 107.4 34.0659 107.4 34.0288V16.5247C107.4 16.4876 107.407 16.4508 107.422 16.4164C107.436 16.382 107.456 16.3509 107.483 16.3246C107.509 16.2983 107.54 16.2775 107.575 16.2634C107.609 16.2492 107.646 16.242 107.683 16.2422H110.291C110.328 16.242 110.365 16.2492 110.399 16.2634C110.434 16.2775 110.465 16.2983 110.491 16.3246C110.517 16.3509 110.538 16.382 110.552 16.4164C110.566 16.4508 110.573 16.4876 110.573 16.5247V24.0673H110.625C111.006 23.4266 111.555 22.901 112.211 22.5461C112.873 22.1843 113.669 22.004 114.596 22.004C115.609 21.9944 116.605 22.2524 117.484 22.7519C118.361 23.2632 119.053 23.9766 119.561 24.9316C120.068 25.8866 120.321 27.0256 120.321 28.3488C120.321 29.672 120.066 30.8123 119.561 31.766C119.055 32.7197 118.361 33.4471 117.484 33.9457C116.607 34.4442 115.643 34.6936 114.595 34.6936C113.667 34.6936 112.872 34.5146 112.21 34.1515M124.712 34.3049H122.104C122.067 34.3051 122.031 34.2979 121.996 34.2838C121.962 34.2696 121.931 34.2488 121.904 34.2226C121.879 34.1963 121.857 34.165 121.843 34.1307C121.83 34.0964 121.822 34.0595 121.822 34.0224V16.5247C121.822 16.4876 121.83 16.4508 121.843 16.4164C121.857 16.382 121.879 16.3509 121.904 16.3246C121.931 16.2983 121.962 16.2775 121.996 16.2634C122.031 16.2492 122.067 16.242 122.104 16.2422H124.712C124.75 16.242 124.786 16.2492 124.821 16.2634C124.856 16.2775 124.887 16.2983 124.913 16.3246C124.939 16.3509 124.96 16.382 124.974 16.4164C124.988 16.4508 124.995 16.4876 124.995 16.5247V34.039C124.995 34.0762 124.988 34.113 124.974 34.1473C124.96 34.1817 124.939 34.2129 124.913 34.2392C124.887 34.2655 124.856 34.2863 124.821 34.3004C124.786 34.3146 124.75 34.3218 124.712 34.3216M130.864 25.1681C130.433 25.5056 130.139 25.9926 129.989 26.6293C129.948 26.8045 130.085 26.9745 130.265 26.9745H135.228C135.4 26.9745 135.535 26.8211 135.509 26.6498C135.409 26.0489 135.15 25.5669 134.734 25.2077C134.244 24.7859 133.604 24.5762 132.813 24.5762C132.021 24.5762 131.373 24.7743 130.866 25.1694M137.223 23.6864C138.237 24.7961 138.757 26.3647 138.757 28.3909V28.7285C138.757 28.7656 138.75 28.8024 138.736 28.8368C138.722 28.8712 138.701 28.9024 138.675 28.9286C138.649 28.9549 138.618 28.9757 138.583 28.9898C138.548 29.004 138.512 29.0112 138.475 29.011H130.183C130.007 29.011 129.873 29.1708 129.904 29.3434C130.037 30.1104 130.37 30.696 130.904 31.1395C131.513 31.6471 132.285 31.9002 133.211 31.9002C134.41 31.9002 135.519 31.4324 136.539 30.4965C136.569 30.4698 136.604 30.4497 136.642 30.4376C136.68 30.4254 136.72 30.4215 136.76 30.4261C136.8 30.4307 136.838 30.4437 136.872 30.4642C136.906 30.4847 136.936 30.5123 136.959 30.5451L138.226 32.3656C138.267 32.4222 138.284 32.4916 138.276 32.5606C138.268 32.6294 138.235 32.6929 138.184 32.7388C137.561 33.2842 136.869 33.7442 136.125 34.1068C135.301 34.5108 134.329 34.7128 133.211 34.7128C131.931 34.7128 130.781 34.4506 129.831 33.9265C128.885 33.4193 128.106 32.6489 127.588 31.7085C127.054 30.7547 126.788 29.663 126.788 28.3948C126.788 27.1266 127.047 26.0297 127.562 25.0684C128.077 24.107 128.8 23.3579 129.729 22.8247C130.659 22.2917 131.74 22.0257 132.979 22.0257C134.801 22.0257 136.22 22.5806 137.234 23.6877M73.1209 18.216C73.1199 18.7267 72.9166 19.2162 72.5555 19.5772C72.1944 19.9384 71.705 20.1416 71.1944 20.1427C70.6837 20.1416 70.1942 19.9384 69.8332 19.5772C69.472 19.2162 69.2688 18.7267 69.2677 18.216C69.2688 17.7054 69.472 17.216 69.8332 16.8549C70.1942 16.4938 70.6837 16.2905 71.1944 16.2895C71.705 16.2905 72.1944 16.4938 72.5555 16.8549C72.9166 17.216 73.1199 17.7054 73.1209 18.216Z" fill="#3C2D89"/>
<path d="M19.7069 7.46611L3.24339 14.2801C2.32805 14.6585 2.3485 15.9599 3.25874 16.3255L19.7912 22.8812C21.2439 23.4572 22.8615 23.4572 24.3142 22.8812L40.8467 16.3255C41.7671 15.9599 41.7774 14.6597 40.862 14.2801L24.3986 7.46611C22.8965 6.84463 21.209 6.84463 19.7069 7.46611Z" fill="#3C2D89"/>
<path d="M23.5156 26.4565V42.8203C23.5156 43.5873 24.3006 44.1331 25.0242 43.8455L43.4333 36.6954C43.6391 36.6143 43.8157 36.4732 43.94 36.2903C44.0642 36.1073 44.1305 35.8912 44.13 35.67V19.3063C44.13 18.5393 43.3451 17.9934 42.6216 18.2811L24.2124 25.4312C24.0065 25.5122 23.83 25.6534 23.7057 25.8363C23.5814 26.0192 23.5152 26.2354 23.5156 26.4565Z" fill="#3C2D89"/>
<path d="M19.2159 27.3035L13.2073 30.212L1.66577 35.7423C0.934521 36.0952 0 35.5634 0 34.749V19.3773C0 19.0834 0.150852 18.8276 0.352842 18.6384C0.435511 18.5559 0.529318 18.4854 0.631537 18.4288C0.782615 18.3423 0.951003 18.2905 1.12455 18.277C1.2981 18.2635 1.47247 18.2887 1.6351 18.3508L19.1494 25.2849C20.0391 25.6378 20.1082 26.8829 19.2414 27.3048" fill="#3C2D89"/>
</svg>
