<svg width="249" height="161" viewBox="0 0 249 161" fill="none" xmlns="http://www.w3.org/2000/svg">
<path d="M69 17.111C69.0761 16.7096 69.1168 16.2975 69.2336 15.9079C69.9413 13.5534 71.4801 12.0425 73.8713 11.4189C73.9965 11.3863 74.0531 11.3252 74.0986 11.2084C75.0266 8.8256 76.762 7.40595 79.29 7.06309C81.3726 6.78044 83.1774 7.4534 84.6525 8.96271C84.7537 9.06641 84.8438 9.09228 84.981 9.06796C88.5123 8.44687 91.8268 10.8046 92.3798 14.3367C92.5221 15.2457 92.4675 16.1487 92.196 17.0318C92.1461 17.1937 92.1609 17.3033 92.2758 17.44C95.2992 21.0511 93.473 26.5698 88.8962 27.6594C88.7831 27.6865 88.7221 27.7348 88.6774 27.8499C87.7493 30.2391 86.0103 31.6258 83.4795 32.0273C83.3691 32.0448 83.2583 32.0603 83.1474 32.0767H82.2309C82.2002 32.0663 82.1699 32.0491 82.1385 32.0463C80.5306 31.898 79.1795 31.2275 78.0689 30.0597C78.0234 30.0119 77.9178 29.9889 77.8484 30.0008C77.0622 30.1351 76.2757 30.1459 75.4927 29.996C71.7408 29.2776 69.5035 25.4763 70.5927 21.9641C70.6282 21.8493 70.6098 21.7735 70.5309 21.6818C69.8779 20.9275 69.4258 20.0659 69.1946 19.0953C69.1132 18.7563 69.0638 18.4096 69 18.0664C69 17.7478 69 17.4296 69 17.111ZM79.9709 23.1807C79.8916 23.1329 79.825 23.0907 79.7564 23.0512C77.9293 21.998 76.1042 20.9415 74.2727 19.8957C73.8996 19.6825 73.7266 19.3975 73.7294 18.962C73.7409 17.1183 73.7342 15.2744 73.7342 13.4302V13.1671C73.6317 13.2065 73.5512 13.2317 73.4758 13.2675C71.7273 14.1004 70.737 15.4813 70.6636 17.4133C70.5939 19.2599 71.4107 20.6963 73.0038 21.6467C74.5586 22.5741 76.1381 23.4599 77.7041 24.368C77.7998 24.4235 77.8647 24.4162 77.9544 24.364C78.5844 23.9956 79.217 23.6329 79.8485 23.2673C79.8876 23.2446 79.9223 23.2151 79.9709 23.1807ZM82.797 15.8736C82.872 15.9215 82.925 15.9577 82.98 15.9896C84.8235 17.054 86.6641 18.1225 88.5123 19.1782C88.8891 19.3934 89.0517 19.6833 89.0493 20.115C89.039 21.9652 89.0449 23.8155 89.0449 25.6657C89.0449 25.7354 89.0449 25.8056 89.0449 25.9C89.1462 25.8618 89.2208 25.8379 89.2921 25.806C90.2824 25.3643 91.0475 24.6822 91.5577 23.7174C92.749 21.4645 92.005 18.7464 89.8104 17.4467C88.2417 16.5175 86.6518 15.6241 85.0738 14.7103C84.9666 14.6481 84.8912 14.6537 84.7872 14.7147C84.2039 15.0576 83.6163 15.3916 83.0303 15.7297C82.9582 15.7712 82.8884 15.817 82.797 15.8736ZM83.0793 9.7266C83.0047 9.66718 82.9545 9.62416 82.9015 9.58543C81.7884 8.7746 80.5517 8.48116 79.1939 8.71354C77.0873 9.07439 75.4014 11.0199 75.3778 13.1527C75.3571 15.0292 75.3703 16.9061 75.3762 18.7827C75.3762 18.8544 75.4372 18.9561 75.4998 18.9932C76.1214 19.362 76.7489 19.7208 77.3755 20.0807C77.4166 20.1042 77.4645 20.1166 77.5255 20.141C77.5255 20.0345 77.5255 19.9551 77.5255 19.8758C77.5255 17.7537 77.5291 15.6316 77.5222 13.5095C77.5211 13.1093 77.675 12.8311 78.0246 12.6349C78.7821 12.2099 79.532 11.7714 80.2846 11.3376C81.2092 10.805 82.1336 10.2719 83.0801 9.7266H83.0793ZM79.7162 29.3422C79.7341 29.3673 79.7428 29.386 79.7572 29.3984C79.8026 29.4371 79.8493 29.4746 79.8972 29.51C80.777 30.1614 81.7713 30.4592 82.8596 30.4433C85.2847 30.4082 87.3645 28.3423 87.4024 25.8961C87.4312 24.0332 87.4112 22.169 87.4052 20.3056C87.4052 20.2334 87.3435 20.1318 87.2804 20.0943C86.6533 19.7223 86.0199 19.3604 85.3872 18.9968C85.3513 18.976 85.3091 18.9661 85.256 18.9462C85.256 19.0454 85.256 19.1247 85.256 19.2041C85.256 21.3131 85.2504 23.422 85.2604 25.531C85.2624 25.9651 85.0942 26.2537 84.7182 26.465C83.7351 27.0167 82.762 27.5853 81.7849 28.1482C81.096 28.5449 80.4078 28.9431 79.7162 29.3422ZM78.916 16.4964C79.0205 16.4397 79.0898 16.4043 79.1572 16.3652C80.9836 15.3123 82.8123 14.2638 84.6333 13.2017C85.0133 12.9801 85.3517 12.9778 85.7321 13.2002C87.3343 14.1374 88.9449 15.0604 90.5527 15.9876C90.6081 16.0195 90.6668 16.0459 90.7266 16.0758C90.8349 15.6667 90.831 15.0093 90.721 14.4081C90.3462 12.363 88.5558 10.7651 86.4879 10.616C85.4904 10.5439 84.5656 10.7584 83.7024 11.2567C82.1584 12.1485 80.6132 13.0391 79.0711 13.9345C79.0069 13.972 78.924 14.0517 78.9232 14.1127C78.9132 14.8945 78.916 15.6763 78.916 16.4964ZM72.0466 22.989C72.0347 23.0348 72.0259 23.0588 72.0223 23.0831C71.8465 24.2684 72.0849 25.3691 72.7431 26.3649C74.1065 28.4272 76.7983 29.0739 78.9838 27.8528C80.5757 26.9638 82.1464 26.0364 83.7283 25.1298C83.8292 25.072 83.8611 25.0054 83.8606 24.8935C83.8564 24.1838 83.8586 23.4742 83.8583 22.7645C83.8583 22.7143 83.8527 22.6641 83.8483 22.5831C83.763 22.6294 83.7004 22.661 83.6398 22.696C81.8024 23.7568 79.9625 24.8141 78.1294 25.883C77.7555 26.101 77.4194 26.0974 77.0475 25.8793C75.7841 25.1371 74.5116 24.4099 73.2426 23.6771C72.8479 23.449 72.4528 23.2227 72.0466 22.989ZM78.9157 19.5258C78.9157 19.9568 78.9104 20.3877 78.9208 20.8187C78.9224 20.8868 78.975 20.9825 79.0333 21.0168C79.7696 21.4518 80.5118 21.8759 81.2494 22.3089C81.3503 22.3684 81.422 22.3603 81.5193 22.3033C82.2457 21.8776 82.9745 21.4557 83.7056 21.0387C83.8113 20.9786 83.8516 20.91 83.8511 20.7884C83.8463 19.9464 83.8524 19.1044 83.8428 18.2625C83.8419 18.1843 83.7778 18.0743 83.7105 18.034C82.9804 17.601 82.2457 17.1769 81.5069 16.759C81.4435 16.7232 81.3252 16.7196 81.2629 16.7547C80.5183 17.1753 79.7779 17.6034 79.042 18.0392C78.9794 18.0763 78.9232 18.1795 78.9212 18.2532C78.9096 18.6775 78.9157 19.1012 78.9157 19.5258Z" fill="#3C2D89"/>
<path d="M97.0117 20.4363C97.054 19.6629 97.0552 18.8843 97.1461 18.1169C97.4642 15.4367 99.3323 13.4975 102.006 13.0546C103.462 12.8134 104.909 12.8577 106.303 13.3843C108.24 14.1162 109.392 15.5438 109.842 17.5392C109.964 18.0786 110.027 18.6399 110.038 19.1929C110.059 20.2394 110.076 21.2911 110 22.334C109.868 24.1292 109.18 25.67 107.693 26.7747C106.804 27.4357 105.786 27.779 104.695 27.9077C103.483 28.0509 102.279 28.009 101.11 27.6303C98.9592 26.9338 97.7026 25.4328 97.2182 23.2509C97.0121 22.322 97.0527 21.3792 97.0117 20.4363ZM99.7896 20.4455C99.7996 20.4459 99.8096 20.4462 99.8195 20.4467C99.8195 20.8446 99.8 21.2436 99.8247 21.6403C99.8538 22.1151 99.8774 22.5975 99.9794 23.0595C100.25 24.2863 100.937 25.188 102.16 25.6099C102.824 25.8386 103.511 25.8853 104.204 25.7829C105.494 25.5923 106.425 24.9281 106.922 23.7026C107.162 23.1114 107.263 22.4922 107.267 21.8576C107.272 20.9358 107.281 20.0137 107.263 19.092C107.255 18.7033 107.218 18.3086 107.137 17.929C106.854 16.6055 106.124 15.6551 104.785 15.2545C104.193 15.0775 103.586 15.0367 102.972 15.1177C101.782 15.2744 100.84 15.8178 100.314 16.9232C100.11 17.353 99.9631 17.8322 99.9033 18.3035C99.8131 19.0107 99.8227 19.7311 99.7896 20.4455Z" fill="#3C2D89"/>
<path d="M160.588 27.6975C159.637 27.6975 158.714 27.7003 157.791 27.6907C157.736 27.6904 157.654 27.6043 157.634 27.542C157.326 26.6184 157.028 25.6918 156.727 24.7658C156.709 24.7095 156.69 24.6542 156.668 24.5899H156.464C154.718 24.5899 152.971 24.5927 151.225 24.5855C151.06 24.5848 150.998 24.6366 150.951 24.7877C150.667 25.6983 150.369 26.604 150.085 27.5142C150.042 27.6537 149.98 27.696 149.836 27.6947C148.94 27.6879 148.043 27.6912 147.117 27.6912C147.145 27.6094 147.165 27.544 147.189 27.4794C148.868 22.7908 150.549 18.1024 152.225 13.4129C152.273 13.2765 152.333 13.2164 152.49 13.2188C153.392 13.232 154.296 13.2375 155.199 13.2312C155.367 13.23 155.425 13.2946 155.475 13.4377C156.723 16.9232 157.974 20.4075 159.225 23.8919C159.654 25.0886 160.083 26.2859 160.513 27.4827C160.534 27.5445 160.555 27.6063 160.588 27.6975ZM156.011 22.5428C155.291 20.27 154.578 18.0219 153.864 15.7738C153.849 15.7746 153.835 15.775 153.82 15.7758C153.101 18.0255 152.383 20.2756 151.658 22.5428H156.011Z" fill="#3C2D89"/>
<path d="M112.172 17.0353H114.709V18.4437C114.748 18.423 114.769 18.419 114.777 18.4062C115.373 17.4439 116.273 16.9587 117.365 16.818C118.313 16.6956 119.25 16.7765 120.131 17.1823C121.46 17.7951 122.178 18.8858 122.477 20.2768C122.559 20.6627 122.594 21.065 122.598 21.4604C122.605 22.302 122.618 23.1472 122.556 23.9856C122.391 26.2337 120.63 27.8774 118.374 27.9427C117.656 27.9635 116.955 27.8985 116.289 27.6102C115.701 27.3563 115.224 26.9704 114.853 26.4267V31.3486H112.172L112.172 17.0353ZM119.93 22.5216C119.901 21.8862 119.912 21.4186 119.85 20.9609C119.732 20.0878 119.314 19.3977 118.482 19.0206C116.936 18.3205 115.203 19.2116 114.925 20.8864C114.82 21.5146 114.852 22.1677 114.845 22.8095C114.842 23.1592 114.856 23.5151 114.918 23.8584C115.13 25.0536 116.085 25.8793 117.261 25.9155C118.53 25.9549 119.527 25.2429 119.791 24.0306C119.91 23.4864 119.897 22.9136 119.93 22.5216Z" fill="#3C2D89"/>
<path d="M131.919 24.6043C132.524 24.9531 133.114 25.294 133.717 25.6416C133.269 26.4138 132.67 27.0126 131.874 27.4073C131.141 27.7713 130.355 27.9068 129.545 27.9307C128.664 27.9566 127.791 27.908 126.955 27.5979C125.429 27.0318 124.472 25.947 124.204 24.3488C123.97 22.9522 123.944 21.5298 124.275 20.1412C124.717 18.2878 126.147 17.0595 128.041 16.8319C129.068 16.7083 130.095 16.6891 131.092 17.0292C132.711 17.581 133.682 18.7224 133.941 20.3919C134.081 21.2954 134.041 22.2266 134.084 23.1742H126.898C126.719 24.8734 127.543 26.1982 129.414 26.1582C130.389 26.1375 131.105 25.6448 131.687 24.9112C131.761 24.818 131.83 24.7214 131.919 24.6043ZM126.869 21.4393H131.422C131.404 21.1167 131.408 20.8105 131.365 20.5108C131.236 19.6185 130.803 18.948 129.917 18.6363C128.756 18.2276 127.55 18.7386 127.103 19.8286C126.893 20.3409 126.847 20.8787 126.869 21.4393Z" fill="#3C2D89"/>
<path d="M135.824 17.0277H138.368V18.4522C138.39 18.4665 138.412 18.4813 138.434 18.4957C138.439 18.4685 138.438 18.4391 138.45 18.4151C138.897 17.4862 139.679 17.0186 140.661 16.8472C141.434 16.7124 142.212 16.7021 142.972 16.9169C144.295 17.2917 145.059 18.2046 145.35 19.5166C145.448 19.9592 145.491 20.4224 145.494 20.8765C145.508 23.072 145.5 25.267 145.5 27.4624C145.5 27.527 145.493 27.5916 145.488 27.6678H142.808C142.808 27.5873 142.808 27.5107 142.808 27.4338C142.808 25.4109 142.812 23.3881 142.804 21.3649C142.802 21.0622 142.777 20.7521 142.706 20.4595C142.476 19.517 141.833 19.0023 140.784 18.9585C139.804 18.9179 138.889 19.3516 138.603 20.5113C138.531 20.8039 138.507 21.1145 138.506 21.4167C138.498 23.4196 138.502 25.4229 138.502 27.4258V27.6694H135.824V17.0277Z" fill="#3C2D89"/>
<path d="M165.225 15.2583H162.137V13.2422H171V15.2622H167.908V25.6264H170.997V27.6584H162.137V25.6455H165.225V15.2583Z" fill="#3C2D89"/>
<mask id="mask0_406_242" style="mask-type:luminance" maskUnits="userSpaceOnUse" x="69" y="71" width="102" height="19">
<path d="M171 71H69V89.9193H171V71Z" fill="white"/>
</mask>
<g mask="url(#mask0_406_242)">
<mask id="mask1_406_242" style="mask-type:luminance" maskUnits="userSpaceOnUse" x="69" y="71" width="102" height="19">
<path d="M171 71H69V89.2777H171V71Z" fill="white"/>
</mask>
<g mask="url(#mask1_406_242)">
<path fill-rule="evenodd" clip-rule="evenodd" d="M76.8789 84.5031L72.3582 79.9616C71.59 79.1899 70.3445 79.1899 69.5761 79.9616C68.808 80.7333 68.808 81.9845 69.5761 82.7563L75.4879 88.6952C76.256 89.467 77.5018 89.467 78.27 88.6952L83.8343 83.1052L81.0524 80.3104L76.8789 84.5031Z" fill="#3C2D89"/>
<path fill-rule="evenodd" clip-rule="evenodd" d="M93.921 75.783L85.228 84.5159L76.5339 75.7821C75.7655 75.0101 74.5201 75.0101 73.7519 75.7821C72.9837 76.5538 72.9837 77.8049 73.7519 78.5769L83.8369 88.7081C84.6051 89.4799 85.8506 89.4799 86.619 88.7081L96.703 78.5778C97.4712 77.806 97.4712 76.5547 96.703 75.783C95.9346 75.0113 94.6892 75.0113 93.921 75.783Z" fill="#3C2D89"/>
<path fill-rule="evenodd" clip-rule="evenodd" d="M100.879 82.7596L94.968 88.6974C94.1999 89.4692 92.9544 89.4692 92.1862 88.6974L77.9276 74.3735C77.1595 73.6018 77.1595 72.3507 77.9276 71.579C78.696 70.807 79.9415 70.807 80.7097 71.579L93.577 84.5053L98.0967 79.9648C98.8651 79.1932 100.111 79.1932 100.879 79.9648C101.647 80.7369 101.647 81.988 100.879 82.7596Z" fill="#3C2D89"/>
<path fill-rule="evenodd" clip-rule="evenodd" d="M92.5219 71.5866C91.7538 70.8149 90.5083 70.8149 89.7399 71.5866L81.0469 80.3196L83.8289 83.1143L92.5219 74.3813C93.2901 73.6094 93.2901 72.3583 92.5219 71.5866Z" fill="#3C2D89"/>
<path fill-rule="evenodd" clip-rule="evenodd" d="M111.634 72.9449H109.215V87.2201H118.078V85.0643H111.634V72.9449ZM123.314 77.2372C124.785 77.2372 125.772 77.8392 126.314 78.5773L126.43 77.4314H128.52V87.2201H126.43L126.314 86.0743C125.772 86.8122 124.785 87.4143 123.314 87.4143C120.662 87.4143 118.863 85.2585 118.863 82.3257C118.863 79.3736 120.662 77.2372 123.314 77.2372ZM123.817 79.2959C122.307 79.2959 121.224 80.4807 121.224 82.3257C121.224 84.1709 122.307 85.3556 123.817 85.3556C124.978 85.3556 125.675 84.7341 126.197 83.8989V80.7525C125.675 79.9175 124.978 79.2959 123.817 79.2959ZM134.374 74.1491H132.052V77.4314H130.214V79.4125H132.052V83.763C132.052 86.1325 133.465 87.4143 135.691 87.4143C136.658 87.4143 137.374 87.1425 137.858 86.8317L137.239 85.006C136.948 85.1808 136.523 85.3167 135.903 85.3167C134.994 85.3167 134.374 84.7341 134.374 83.7435V79.4125H137.316V77.4314H134.374V74.1491ZM142.377 74.1491H140.055V77.4314H138.217V79.4125H140.055V83.763C140.055 86.1325 141.468 87.4143 143.694 87.4143C144.661 87.4143 145.377 87.1425 145.861 86.8317L145.241 85.006C144.951 85.1808 144.526 85.3167 143.907 85.3167C142.997 85.3167 142.377 84.7341 142.377 83.7435V79.4125H145.319V77.4314H142.377V74.1491ZM149.741 77.4314H147.419V87.2201H149.741V77.4314ZM148.581 72.8672C147.768 72.8672 147.148 73.4694 147.148 74.3045C147.148 75.1396 147.768 75.7417 148.581 75.7417C149.413 75.7417 150.032 75.1396 150.032 74.3045C150.032 73.4694 149.413 72.8672 148.581 72.8672ZM156.758 77.2372C153.758 77.2372 151.765 79.3736 151.765 82.3257C151.765 85.2585 153.778 87.4143 156.777 87.4143C158.538 87.4143 159.872 86.618 160.744 85.2585L159.08 83.9572C158.615 84.7341 157.861 85.375 156.796 85.375C155.074 85.375 154.125 84.0349 154.125 82.3257C154.125 80.5972 155.036 79.2765 156.777 79.2765C157.861 79.2765 158.577 79.8979 159.022 80.6749L160.705 79.393C159.834 78.0335 158.538 77.2372 156.758 77.2372ZM166.425 77.2372C169.425 77.2372 170.895 79.4902 170.895 82.2286V83.0443H164.006C164.063 84.5981 164.992 85.4527 166.618 85.4527C167.76 85.4527 168.592 84.9478 169.037 84.3262L170.644 85.6469C169.676 86.8122 168.399 87.4143 166.599 87.4143C163.58 87.4143 161.645 85.2779 161.645 82.3451C161.645 79.393 163.619 77.2372 166.425 77.2372ZM166.386 79.1017C165.012 79.1017 164.083 80.0145 164.006 81.3741H168.612C168.554 80.0339 167.78 79.1017 166.386 79.1017Z" fill="#3C2D89"/>
</g>
</g>
<path d="M53.1888 140.01L51.3934 135.167C51.3211 134.969 51.0394 134.969 50.9661 135.167L49.1706 140.01C49.1578 140.045 49.1535 140.082 49.1581 140.118C49.1627 140.154 49.176 140.189 49.1971 140.219C49.2181 140.25 49.2461 140.274 49.2787 140.291C49.3113 140.308 49.3475 140.317 49.3843 140.317H52.9752C53.0119 140.317 53.0482 140.308 53.0807 140.291C53.1133 140.274 53.1414 140.25 53.1624 140.219C53.1834 140.189 53.1968 140.154 53.2014 140.118C53.206 140.082 53.2016 140.045 53.1888 140.01ZM54.0184 142.731H48.3512C48.3048 142.731 48.2593 142.745 48.2211 142.772C48.183 142.798 48.1538 142.836 48.1377 142.88L47.0202 145.893C47.0041 145.937 46.975 145.974 46.9368 146.001C46.8986 146.027 46.8532 146.042 46.8066 146.042H44.3455C44.3082 146.042 44.2714 146.033 44.2384 146.015C44.2053 145.998 44.1772 145.973 44.1562 145.942C44.1353 145.911 44.1223 145.875 44.1184 145.838C44.1145 145.801 44.1199 145.763 44.134 145.729L49.8094 131.613C49.8263 131.57 49.8556 131.534 49.8932 131.509C49.9309 131.484 49.9754 131.47 50.0209 131.47H52.3778C52.4232 131.47 52.4677 131.484 52.5054 131.509C52.5431 131.534 52.5723 131.57 52.5893 131.613L58.2647 145.729C58.2788 145.763 58.2841 145.801 58.2802 145.838C58.2764 145.875 58.2634 145.911 58.2425 145.942C58.2216 145.973 58.1934 145.998 58.1603 146.015C58.1273 146.033 58.0905 146.042 58.0531 146.042H55.5745C55.528 146.042 55.4825 146.027 55.4444 146.001C55.4062 145.974 55.377 145.937 55.361 145.893L54.2435 142.88C54.2273 142.836 54.1982 142.798 54.16 142.772C54.1218 142.745 54.0764 142.731 54.0298 142.731M59.3998 136.424H61.5048C61.5348 136.424 61.5645 136.43 61.5923 136.441C61.62 136.453 61.6451 136.47 61.6664 136.491C61.6876 136.512 61.7044 136.537 61.7158 136.565C61.7272 136.593 61.7329 136.622 61.7328 136.652V145.816C61.7329 145.846 61.7272 145.875 61.7158 145.903C61.7044 145.931 61.6876 145.956 61.6664 145.977C61.6451 145.998 61.62 146.015 61.5923 146.027C61.5645 146.038 61.5348 146.044 61.5048 146.044H59.3998C59.3698 146.044 59.34 146.038 59.3123 146.027C59.2846 146.015 59.2594 145.998 59.2382 145.977C59.217 145.956 59.2002 145.931 59.1888 145.903C59.1774 145.875 59.1716 145.846 59.1717 145.816V136.632C59.1716 136.602 59.1774 136.572 59.1888 136.544C59.2002 136.517 59.217 136.491 59.2382 136.47C59.2594 136.449 59.2846 136.432 59.3123 136.421C59.34 136.409 59.3698 136.404 59.3998 136.404M69.4091 138.633C69.4092 138.663 69.4034 138.692 69.392 138.72C69.3806 138.748 69.3638 138.773 69.3426 138.794C69.3213 138.815 69.2962 138.832 69.2685 138.844C69.2407 138.855 69.211 138.861 69.181 138.861H69.117C68.0852 138.861 67.3112 139.11 66.8262 139.61C66.3412 140.109 66.0977 140.935 66.0977 142.086V145.793C66.0978 145.823 66.092 145.853 66.0807 145.88C66.0692 145.908 66.0525 145.933 66.0313 145.954C66.01 145.976 65.9848 145.992 65.9572 146.004C65.9294 146.015 65.8997 146.021 65.8697 146.021H63.7853C63.7553 146.021 63.7256 146.015 63.6978 146.004C63.6701 145.992 63.645 145.976 63.6237 145.954C63.6025 145.933 63.5857 145.908 63.5743 145.88C63.5629 145.853 63.5571 145.823 63.5572 145.793V136.642C63.5571 136.612 63.5629 136.582 63.5743 136.555C63.5857 136.527 63.6025 136.502 63.6237 136.48C63.645 136.459 63.6701 136.443 63.6978 136.431C63.7256 136.42 63.7553 136.414 63.7853 136.414H65.8491C65.879 136.414 65.9087 136.42 65.9365 136.431C65.9643 136.443 65.9894 136.459 66.0106 136.48C66.0318 136.502 66.0486 136.527 66.06 136.555C66.0714 136.582 66.0773 136.612 66.0771 136.642V138.454H66.1184C66.3681 137.705 66.7634 137.129 67.305 136.727C67.8468 136.324 68.5123 136.123 69.3028 136.123H69.406L69.4091 138.633ZM75.1647 138.548C75.1353 138.548 75.1051 138.554 75.0778 138.565C75.0498 138.576 75.0247 138.593 75.0032 138.614C74.9824 138.636 74.9652 138.661 74.9536 138.689C74.9429 138.716 74.9364 138.746 74.9372 138.776V142.587C74.9372 142.976 75.0133 143.252 75.1662 143.419C75.3184 143.587 75.5818 143.669 75.9566 143.669H76.1656C76.1957 143.669 76.2259 143.675 76.2532 143.686C76.2812 143.698 76.3063 143.714 76.3271 143.736C76.3486 143.757 76.3652 143.782 76.3767 143.81C76.3881 143.838 76.3938 143.867 76.3938 143.897V145.826C76.3938 145.856 76.3881 145.886 76.3767 145.913C76.3652 145.941 76.3486 145.966 76.3271 145.987C76.3063 146.009 76.2812 146.025 76.2532 146.037C76.2259 146.048 76.1957 146.054 76.1656 146.054H75.2681C74.3395 146.054 73.6233 145.814 73.1239 145.336C72.6245 144.857 72.3747 144.146 72.3747 143.202V138.787C72.3748 138.757 72.3691 138.728 72.3576 138.7C72.3462 138.672 72.3295 138.647 72.3082 138.626C72.287 138.605 72.2618 138.588 72.2341 138.576C72.2064 138.565 72.1767 138.559 72.1466 138.559H70.8331C70.803 138.559 70.7733 138.554 70.7456 138.542C70.7179 138.531 70.6927 138.514 70.6715 138.493C70.6502 138.472 70.6335 138.446 70.6221 138.419C70.6107 138.391 70.6049 138.361 70.605 138.331V136.642C70.6049 136.612 70.6107 136.582 70.6221 136.555C70.6335 136.527 70.6502 136.502 70.6715 136.48C70.6927 136.459 70.7179 136.443 70.7456 136.431C70.7733 136.42 70.803 136.414 70.8331 136.414H72.1466C72.1767 136.414 72.2064 136.408 72.2341 136.397C72.2618 136.386 72.287 136.369 72.3082 136.348C72.3295 136.326 72.3462 136.301 72.3576 136.273C72.3691 136.246 72.3748 136.216 72.3747 136.186V132.781C72.3746 132.751 72.3803 132.721 72.3918 132.693C72.4032 132.666 72.4199 132.64 72.4413 132.619C72.4624 132.598 72.4876 132.581 72.5154 132.57C72.543 132.558 72.5727 132.553 72.6028 132.553H74.7081C74.7376 132.553 74.7677 132.558 74.795 132.57C74.823 132.581 74.8481 132.598 74.8697 132.619C74.8905 132.64 74.9077 132.666 74.9184 132.693C74.93 132.721 74.9357 132.751 74.9357 132.781V136.186C74.9357 136.216 74.9414 136.246 74.9529 136.273C74.9644 136.301 74.9809 136.326 75.0025 136.348C75.0233 136.369 75.0484 136.386 75.0764 136.397C75.1044 136.408 75.1339 136.414 75.164 136.414H76.6861C76.7162 136.414 76.7457 136.42 76.7737 136.431C76.801 136.443 76.8261 136.459 76.8476 136.48C76.8685 136.502 76.8856 136.527 76.8972 136.555C76.9087 136.582 76.9144 136.612 76.9137 136.642V138.331C76.9144 138.361 76.9087 138.391 76.8972 138.419C76.8856 138.446 76.8685 138.472 76.8476 138.493C76.8261 138.514 76.801 138.531 76.7737 138.542C76.7457 138.554 76.7162 138.559 76.6861 138.559L75.1647 138.548ZM84.8026 143.169C85.2813 142.669 85.521 142.017 85.521 141.212C85.521 140.407 85.2813 139.755 84.8026 139.256C84.324 138.756 83.6955 138.507 82.9187 138.507C82.1418 138.507 81.5151 138.756 81.0341 139.256C80.5537 139.755 80.3161 140.407 80.3161 141.212C80.3161 142.017 80.5559 142.669 81.0341 143.169C81.513 143.668 82.1404 143.918 82.9187 143.918C83.697 143.918 84.324 143.668 84.8026 143.169ZM79.9528 145.728C79.2355 145.316 78.6533 144.705 78.2771 143.968C77.8672 143.199 77.6632 142.279 77.6632 141.21C77.6632 140.141 77.8672 139.223 78.2771 138.452C78.687 137.681 79.2449 137.096 79.9528 136.693C80.6629 136.289 81.4669 136.081 82.284 136.089C83.0328 136.089 83.6747 136.233 84.2094 136.526C84.7437 136.82 85.1691 137.228 85.4887 137.765H85.5307V136.642C85.5299 136.612 85.5355 136.582 85.5468 136.555C85.5589 136.527 85.5759 136.502 85.5969 136.48C85.6179 136.459 85.6437 136.443 85.6703 136.431C85.6986 136.42 85.7284 136.414 85.7583 136.414H87.8424C87.8723 136.414 87.9029 136.42 87.9304 136.431C87.9578 136.443 87.9828 136.459 88.0038 136.48C88.0256 136.502 88.0418 136.527 88.0539 136.555C88.0652 136.582 88.0708 136.612 88.0708 136.642V145.805C88.0708 145.835 88.0652 145.865 88.0539 145.893C88.0418 145.92 88.0256 145.946 88.0038 145.967C87.9828 145.988 87.9578 146.005 87.9304 146.016C87.9029 146.028 87.8723 146.033 87.8424 146.033H85.7583C85.7284 146.033 85.6986 146.028 85.6703 146.016C85.6437 146.005 85.6179 145.988 85.5969 145.967C85.5759 145.946 85.5589 145.92 85.5468 145.893C85.5355 145.865 85.5299 145.835 85.5307 145.805V144.67H85.4887C85.1796 145.186 84.7429 145.607 84.2094 145.908C83.6761 146.21 83.0328 146.346 82.284 146.346C81.4376 146.346 80.6607 146.145 79.9521 145.742M96.7389 143.183C97.2176 142.684 97.4565 142.032 97.4565 141.227C97.4565 140.422 97.2176 139.77 96.7389 139.27C96.2595 138.771 95.6315 138.521 94.855 138.521C94.0769 138.521 93.4489 138.771 92.9703 139.27C92.4908 139.77 92.2519 140.422 92.2519 141.227C92.2519 142.032 92.4908 142.684 92.9703 143.183C93.4489 143.683 94.0761 143.932 94.855 143.932C95.6323 143.932 96.2595 143.683 96.7389 143.183ZM93.5749 145.911C93.0454 145.624 92.6022 145.2 92.2947 144.683H92.2527V145.818C92.2527 145.848 92.2471 145.877 92.2358 145.905C92.2245 145.933 92.2075 145.958 92.1865 145.979C92.1656 146 92.1405 146.017 92.1123 146.029C92.0848 146.04 92.055 146.046 92.0251 146.046H89.92C89.8902 146.046 89.8603 146.04 89.8329 146.029C89.8046 146.017 89.7796 146 89.7586 145.979C89.7368 145.958 89.7207 145.933 89.7094 145.905C89.6973 145.877 89.6916 145.848 89.6916 145.818V131.689C89.6916 131.659 89.6973 131.629 89.7094 131.602C89.7207 131.574 89.7368 131.549 89.7586 131.527C89.7796 131.506 89.8046 131.489 89.8329 131.478C89.8603 131.467 89.8902 131.461 89.92 131.461H92.0251C92.055 131.461 92.0848 131.467 92.1123 131.478C92.1405 131.489 92.1656 131.506 92.1865 131.527C92.2075 131.549 92.2245 131.574 92.2358 131.602C92.2471 131.629 92.2527 131.659 92.2527 131.689V137.777H92.2947C92.6022 137.26 93.0454 136.836 93.5749 136.549C94.1092 136.257 94.7517 136.112 95.4999 136.112C96.3176 136.104 97.1215 136.312 97.831 136.715C98.5389 137.128 99.0975 137.704 99.5075 138.475C99.9167 139.246 100.121 140.165 100.121 141.233C100.121 142.301 99.9151 143.221 99.5075 143.991C99.0991 144.761 98.5389 145.348 97.831 145.751C97.1232 146.153 96.345 146.354 95.4991 146.354C94.7501 146.354 94.1084 146.21 93.5741 145.917M103.665 146.04H101.56C101.53 146.041 101.501 146.035 101.473 146.023C101.446 146.012 101.42 145.995 101.399 145.974C101.379 145.953 101.361 145.928 101.349 145.9C101.339 145.872 101.333 145.842 101.333 145.812V131.689C101.333 131.659 101.339 131.629 101.349 131.602C101.361 131.574 101.379 131.549 101.399 131.527C101.42 131.506 101.446 131.489 101.473 131.478C101.501 131.467 101.53 131.461 101.56 131.461H103.665C103.696 131.461 103.725 131.467 103.753 131.478C103.781 131.489 103.806 131.506 103.827 131.527C103.848 131.549 103.865 131.574 103.877 131.602C103.888 131.629 103.894 131.659 103.894 131.689V145.826C103.894 145.856 103.888 145.886 103.877 145.913C103.865 145.941 103.848 145.966 103.827 145.987C103.806 146.009 103.781 146.025 103.753 146.037C103.725 146.048 103.696 146.054 103.665 146.054M108.631 138.666C108.283 138.938 108.046 139.331 107.925 139.845C107.892 139.986 108.002 140.124 108.147 140.124H112.153C112.292 140.124 112.401 140 112.38 139.862C112.299 139.377 112.09 138.987 111.755 138.698C111.359 138.357 110.842 138.188 110.204 138.188C109.565 138.188 109.042 138.348 108.632 138.667M113.764 137.47C114.582 138.365 115.002 139.631 115.002 141.267V141.539C115.002 141.569 114.996 141.599 114.985 141.627C114.974 141.655 114.957 141.68 114.936 141.701C114.915 141.722 114.89 141.739 114.861 141.75C114.833 141.762 114.804 141.768 114.774 141.767H108.081C107.939 141.767 107.831 141.896 107.856 142.036C107.963 142.655 108.232 143.128 108.663 143.485C109.155 143.895 109.778 144.099 110.525 144.099C111.493 144.099 112.388 143.722 113.212 142.966C113.236 142.945 113.264 142.929 113.295 142.919C113.325 142.909 113.358 142.906 113.39 142.91C113.422 142.913 113.453 142.924 113.48 142.94C113.508 142.957 113.532 142.979 113.551 143.006L114.573 144.475C114.606 144.521 114.62 144.577 114.614 144.633C114.607 144.688 114.58 144.739 114.539 144.776C114.036 145.217 113.478 145.588 112.877 145.881C112.212 146.207 111.428 146.37 110.525 146.37C109.492 146.37 108.564 146.158 107.797 145.735C107.033 145.326 106.405 144.704 105.987 143.945C105.556 143.175 105.341 142.294 105.341 141.27C105.341 140.246 105.55 139.361 105.966 138.585C106.381 137.809 106.965 137.204 107.715 136.774C108.465 136.344 109.338 136.129 110.338 136.129C111.809 136.129 112.954 136.577 113.772 137.471M62.0228 133.054C62.022 133.466 61.8579 133.861 61.5664 134.153C61.275 134.444 60.8799 134.608 60.4678 134.609C60.0556 134.608 59.6605 134.444 59.3691 134.153C59.0775 133.861 58.9135 133.466 58.9126 133.054C58.9135 132.642 59.0775 132.247 59.3691 131.955C59.6605 131.664 60.0556 131.5 60.4678 131.499C60.8799 131.5 61.275 131.664 61.5664 131.955C61.8579 132.247 62.022 132.642 62.0228 133.054Z" fill="#3C2D89"/>
<path d="M18.9094 124.376L5.62065 129.876C4.88183 130.182 4.89833 131.232 5.63304 131.527L18.9774 136.819C20.15 137.284 21.4557 137.284 22.6282 136.819L35.9726 131.527C36.7155 131.232 36.7239 130.183 35.985 129.876L22.6963 124.376C21.4839 123.875 20.1218 123.875 18.9094 124.376Z" fill="#3C2D89"/>
<path d="M21.9805 139.709V152.917C21.9805 153.536 22.6141 153.977 23.1982 153.744L38.0573 147.973C38.2234 147.908 38.3659 147.794 38.4663 147.646C38.5665 147.498 38.62 147.324 38.6196 147.145V133.937C38.6196 133.318 37.9861 132.878 37.4021 133.11L22.5429 138.881C22.3767 138.946 22.2342 139.06 22.1339 139.208C22.0336 139.356 21.9801 139.53 21.9805 139.709Z" fill="#3C2D89"/>
<path d="M18.5104 140.382L13.6604 142.73L4.34455 147.194C3.75431 147.479 3 147.05 3 146.392V133.985C3 133.748 3.12176 133.541 3.2848 133.388C3.35153 133.322 3.42725 133.265 3.50975 133.219C3.6317 133.149 3.76761 133.108 3.90769 133.097C4.04778 133.086 4.18852 133.106 4.31979 133.156L18.4567 138.753C19.1748 139.038 19.2306 140.043 18.5309 140.384" fill="#3C2D89"/>
<path d="M228.42 128.306V148.682C228.42 149.4 227.829 149.988 227.107 149.988C226.385 149.988 225.793 149.4 225.793 148.682V128.306C225.793 127.588 226.385 127 227.107 127C227.829 127 228.42 127.576 228.42 128.306ZM239.544 134.271C235.189 134.271 231.639 137.8 231.639 142.129C231.639 146.459 235.189 149.988 239.544 149.988C241.9 149.988 244.148 149.047 245.733 147.4C246.23 146.882 246.219 146.047 245.686 145.553C245.166 145.059 244.325 145.071 243.828 145.6C242.739 146.729 241.177 147.377 239.544 147.377C236.633 147.377 234.278 145.024 234.278 142.141C234.278 139.259 236.645 136.906 239.544 136.906C241.805 136.906 243.71 138.459 244.231 140.541H237.781C237.059 140.541 236.467 141.129 236.467 141.847C236.467 142.565 237.059 143.153 237.781 143.153H245.686C246.408 143.153 247 142.565 247 141.847V141.706C247.012 137.6 243.662 134.271 239.544 134.271ZM182.965 140.847C179.439 140.306 178.823 139.859 178.823 138.847C178.823 137.871 180.113 136.882 182.575 136.882C183.782 136.882 185.522 137.129 186.918 138.271C187.474 138.729 188.314 138.647 188.776 138.094C189.237 137.529 189.155 136.706 188.598 136.247C186.587 134.612 184.22 134.259 182.575 134.259C178.184 134.259 176.184 136.635 176.184 138.847C176.184 139.976 176.599 141.529 178.587 142.459C179.746 143 181.178 143.224 182.563 143.435C186.066 143.965 186.681 144.412 186.681 145.4C186.681 146.576 185.202 147.365 183.001 147.365C180.67 147.365 178.894 146.424 178.042 145.859C177.439 145.459 176.622 145.624 176.22 146.223C175.818 146.824 175.983 147.635 176.587 148.035C178.48 149.282 180.764 149.976 183.001 149.976C187.368 149.976 189.32 147.671 189.32 145.388C189.32 141.812 185.652 141.259 182.965 140.847ZM198.989 136.894C200.61 136.894 202.113 137.694 203.012 139.047C203.415 139.647 204.231 139.812 204.835 139.412C205.438 139.012 205.604 138.2 205.202 137.6C203.817 135.518 201.486 134.282 198.977 134.282C194.622 134.282 191.072 137.812 191.072 142.141C191.072 146.471 194.622 150 198.977 150C201.486 150 203.805 148.753 205.202 146.682C205.604 146.082 205.438 145.271 204.835 144.871C204.231 144.471 203.415 144.635 203.012 145.235C202.113 146.576 200.61 147.388 198.989 147.388C196.078 147.388 193.723 145.035 193.723 142.153C193.723 139.271 196.078 136.894 198.989 136.894ZM215.095 134.271C210.74 134.271 207.19 137.8 207.19 142.129C207.19 146.459 210.74 149.988 215.095 149.988H215.971C216.693 149.988 217.284 149.4 217.284 148.682C217.284 147.965 216.693 147.377 215.971 147.377H215.095C212.184 147.377 209.829 145.024 209.829 142.141C209.829 139.259 212.196 136.906 215.095 136.906C217.758 136.906 219.923 139.059 219.923 141.706V148.694C219.923 149.412 220.515 150 221.237 150C221.959 150 222.55 149.412 222.55 148.694V141.706C222.562 137.6 219.213 134.271 215.095 134.271Z" fill="#3C2D89"/>
</svg>
