<svg width="563" height="39" viewBox="0 0 563 39" fill="none" xmlns="http://www.w3.org/2000/svg">
<path d="M6 16.391C6.09332 15.899 6.14315 15.3939 6.2863 14.9166C7.1535 12.0311 9.03935 10.1795 11.9697 9.41536C12.1232 9.37532 12.1925 9.3005 12.2483 9.15738C13.3856 6.23725 15.5123 4.49749 18.6103 4.07732C21.1625 3.73093 23.3742 4.55563 25.182 6.40528C25.306 6.53236 25.4164 6.56406 25.5845 6.53426C29.9122 5.77312 33.9741 8.66245 34.6517 12.9911C34.8262 14.1051 34.7592 15.2117 34.4265 16.2939C34.3654 16.4922 34.3835 16.6266 34.5242 16.7941C38.2294 21.2195 35.9914 27.9826 30.3826 29.3179C30.244 29.3511 30.1692 29.4103 30.1144 29.5514C28.9771 32.4793 26.846 34.1786 23.7445 34.6706C23.6092 34.6921 23.4734 34.7111 23.3376 34.7312H22.2144C22.1768 34.7185 22.1396 34.6975 22.101 34.694C20.1306 34.5123 18.4749 33.6906 17.1139 32.2595C17.0581 32.2009 16.9286 32.1726 16.8437 32.1872C15.8802 32.3519 14.9163 32.365 13.9567 32.1813C9.35886 31.301 6.61705 26.6425 7.95181 22.3384C7.99529 22.1976 7.97282 22.1048 7.87608 21.9925C7.07582 21.068 6.52179 20.0122 6.23842 18.8227C6.13875 18.4073 6.07817 17.9824 6 17.5617C6 17.1713 6 16.7814 6 16.391ZM19.4448 23.8293C19.3475 23.7707 19.2659 23.719 19.1819 23.6706C16.9428 22.3799 14.7062 21.0851 12.4617 19.8036C12.0044 19.5423 11.7924 19.193 11.7958 18.6594C11.81 16.3998 11.8017 14.1402 11.8017 11.8801V11.5577C11.6761 11.606 11.5774 11.6368 11.4851 11.6808C9.34225 12.7014 8.12867 14.3938 8.03877 16.7613C7.95328 19.0244 8.95434 20.7847 10.9066 21.9493C12.812 23.0859 14.7477 24.1715 16.6668 25.2843C16.7841 25.3523 16.8636 25.3434 16.9736 25.2794C17.7456 24.828 18.5209 24.3834 19.2948 23.9354C19.3426 23.9076 19.3852 23.8715 19.4448 23.8293ZM22.9081 14.8746C23 14.9332 23.065 14.9776 23.1324 15.0167C25.3916 16.3211 27.6472 17.6306 29.9122 18.9242C30.3739 19.188 30.5732 19.5433 30.5702 20.0723C30.5575 22.3397 30.5649 24.6072 30.5649 26.8747C30.5649 26.9601 30.5649 27.046 30.5649 27.1618C30.689 27.115 30.7804 27.0857 30.8678 27.0466C32.0814 26.5053 33.019 25.6693 33.6443 24.487C35.1041 21.7262 34.1925 18.3951 31.5029 16.8024C29.5805 15.6636 27.6321 14.5688 25.6983 13.4489C25.5669 13.3726 25.4745 13.3795 25.3471 13.4543C24.6322 13.8745 23.9121 14.2839 23.194 14.6982C23.1056 14.749 23.0201 14.8052 22.9081 14.8746ZM23.254 7.34143C23.1626 7.2686 23.1011 7.21588 23.0362 7.16842C21.6721 6.17475 20.1566 5.81515 18.4925 6.09993C15.911 6.54214 13.8448 8.92631 13.816 11.5401C13.7906 13.8398 13.8067 16.1399 13.814 18.4395C13.814 18.5275 13.8888 18.6521 13.9655 18.6976C14.7272 19.1495 15.4962 19.5892 16.2641 20.0303C16.3145 20.0591 16.3732 20.0743 16.4479 20.1041C16.4479 19.9737 16.4479 19.8764 16.4479 19.7792C16.4479 17.1786 16.4524 14.578 16.4439 11.9773C16.4425 11.4868 16.6312 11.1459 17.0595 10.9055C17.9879 10.3847 18.9068 9.84724 19.8292 9.31563C20.9623 8.663 22.0952 8.00973 23.255 7.34143H23.254ZM19.1325 31.3801C19.1546 31.4109 19.1652 31.4338 19.1829 31.449C19.2385 31.4964 19.2958 31.5424 19.3544 31.5858C20.4326 32.3841 21.6511 32.7491 22.9848 32.7295C25.9568 32.6866 28.5055 30.1548 28.552 27.157C28.5872 24.874 28.5628 22.5895 28.5554 20.3059C28.5554 20.2174 28.4797 20.0929 28.4025 20.047C27.634 19.5911 26.8577 19.1475 26.0823 18.7019C26.0384 18.6765 25.9866 18.6643 25.9215 18.6399C25.9215 18.7615 25.9215 18.8587 25.9215 18.956C25.9215 21.5406 25.9148 24.125 25.927 26.7095C25.9294 27.2415 25.7233 27.5952 25.2625 27.8541C24.0578 28.5303 22.8652 29.227 21.6677 29.9169C20.8235 30.403 19.9802 30.8911 19.1325 31.3801ZM18.152 15.6377C18.28 15.5683 18.365 15.5248 18.4476 15.4769C20.6857 14.1866 22.9268 12.9017 25.1584 11.6002C25.6241 11.3285 26.0389 11.3257 26.505 11.5983C28.4685 12.7468 30.4422 13.8779 32.4126 15.0142C32.4806 15.0534 32.5524 15.0856 32.6257 15.1223C32.7585 14.6209 32.7537 13.8153 32.6189 13.0786C32.1596 10.5723 29.9654 8.61408 27.4313 8.43138C26.2089 8.34298 25.0754 8.60584 24.0176 9.21653C22.1255 10.3094 20.2318 11.4009 18.342 12.4982C18.2633 12.5441 18.1618 12.6418 18.1608 12.7166C18.1486 13.6746 18.152 14.6327 18.152 15.6377ZM9.73359 23.5944C9.71894 23.6505 9.70819 23.6799 9.70379 23.7097C9.48834 25.1622 9.78049 26.5112 10.5871 27.7315C12.258 30.2588 15.5567 31.0513 18.2351 29.5548C20.1859 28.4654 22.1108 27.3289 24.0494 26.2179C24.1731 26.1471 24.2121 26.0655 24.2116 25.9283C24.2063 25.0586 24.2091 24.1889 24.2087 23.3193C24.2087 23.2578 24.2019 23.1962 24.1964 23.097C24.0919 23.1537 24.0152 23.1924 23.9409 23.2353C21.6892 24.5353 19.4344 25.831 17.188 27.1409C16.7298 27.4081 16.3179 27.4036 15.8621 27.1364C14.3138 26.2268 12.7544 25.3356 11.1993 24.4377C10.7156 24.1581 10.2314 23.8807 9.73359 23.5944ZM18.1516 19.3502C18.1516 19.8784 18.1451 20.4065 18.1578 20.9347C18.1598 21.0182 18.2243 21.1355 18.2957 21.1775C19.198 21.7105 20.1076 22.2303 21.0115 22.7609C21.1352 22.8338 21.223 22.8239 21.3423 22.7541C22.2325 22.2323 23.1256 21.7154 24.0216 21.2043C24.1511 21.1306 24.2004 21.0466 24.1999 20.8975C24.194 19.8657 24.2014 18.8338 24.1896 17.802C24.1887 17.7063 24.11 17.5714 24.0275 17.522C23.1328 16.9914 22.2325 16.4717 21.3271 15.9596C21.2494 15.9157 21.1044 15.9112 21.0281 15.9543C20.1155 16.4697 19.2083 16.9944 18.3064 17.5285C18.2296 17.5739 18.1608 17.7004 18.1583 17.7907C18.1441 18.3106 18.1516 18.8299 18.1516 19.3502Z" fill="#3C2D89"/>
<path d="M40.3281 20.4685C40.3799 19.5206 40.3814 18.5665 40.4928 17.626C40.8827 14.3414 43.172 11.9651 46.4483 11.4222C48.2325 11.1266 50.006 11.1809 51.7145 11.8263C54.088 12.7232 55.5004 14.4728 56.052 16.9181C56.201 17.5791 56.2783 18.2669 56.2919 18.9446C56.3178 20.2271 56.3388 21.516 56.245 22.794C56.0833 24.9941 55.24 26.8823 53.4182 28.2361C52.3282 29.0462 51.0814 29.4668 49.7437 29.6245C48.2584 29.8 46.7835 29.7487 45.351 29.2846C42.7147 28.431 41.1748 26.5915 40.5812 23.9177C40.3286 22.7794 40.3784 21.6239 40.3281 20.4685ZM43.7324 20.4797C43.7446 20.4802 43.7569 20.4806 43.769 20.4812C43.769 20.9688 43.7451 21.4578 43.7754 21.9439C43.8111 22.5258 43.8399 23.117 43.9649 23.6832C44.2972 25.1865 45.138 26.2916 46.6373 26.8086C47.4508 27.0889 48.2926 27.1461 49.1422 27.0206C50.7228 26.787 51.8641 25.9731 52.4732 24.4712C52.7669 23.7468 52.8915 22.988 52.8959 22.2102C52.9022 21.0806 52.9126 19.9505 52.891 18.821C52.8818 18.3446 52.8358 17.8609 52.7366 17.3958C52.3897 15.7738 51.4952 14.6091 49.8541 14.1182C49.1287 13.9012 48.3844 13.8513 47.6321 13.9506C46.1742 14.1425 45.0193 14.8085 44.3754 16.1632C44.1247 16.6899 43.945 17.2771 43.8717 17.8547C43.7612 18.7214 43.773 19.6042 43.7324 20.4797Z" fill="#3C2D89"/>
<path d="M118.239 29.3686C117.073 29.3686 115.942 29.372 114.811 29.3603C114.744 29.3598 114.644 29.2543 114.618 29.178C114.241 28.0462 113.876 26.9106 113.508 25.7758C113.485 25.7068 113.462 25.639 113.434 25.5603H113.185C111.045 25.5603 108.904 25.5637 106.764 25.5548C106.563 25.554 106.487 25.6174 106.429 25.8027C106.081 26.9185 105.715 28.0285 105.367 29.1439C105.315 29.3149 105.239 29.3667 105.062 29.3652C103.964 29.3569 102.865 29.3608 101.73 29.3608C101.764 29.2607 101.789 29.1805 101.818 29.1013C103.876 23.3554 105.936 17.6099 107.99 11.863C108.049 11.6958 108.122 11.6221 108.315 11.6251C109.421 11.6412 110.528 11.648 111.635 11.6402C111.841 11.6388 111.912 11.7179 111.973 11.8933C113.502 16.1648 115.036 20.4348 116.568 24.7048C117.095 26.1714 117.62 27.6386 118.146 29.1053C118.173 29.181 118.199 29.2568 118.239 29.3686ZM112.63 23.0515C111.747 20.2663 110.874 17.5112 109.999 14.7562C109.981 14.7572 109.963 14.7576 109.945 14.7586C109.064 17.5156 108.183 20.2731 107.295 23.0515H112.63Z" fill="#3C2D89"/>
<path d="M58.9062 16.2992H62.015V18.0252C62.0629 17.9998 62.0893 17.9949 62.0991 17.9793C62.8295 16.7999 63.9317 16.2053 65.2699 16.0329C66.4321 15.8829 67.5802 15.9821 68.66 16.4794C70.2889 17.2303 71.1692 18.567 71.5347 20.2717C71.6358 20.7446 71.6788 21.2375 71.6832 21.7221C71.692 22.7535 71.7081 23.7893 71.6324 24.8167C71.4292 27.5717 69.2711 29.5862 66.5069 29.6661C65.627 29.6917 64.7681 29.612 63.9518 29.2587C63.2316 28.9476 62.6462 28.4747 62.1924 27.8082V33.84H58.9068L58.9062 16.2992ZM68.4138 23.0227C68.3776 22.244 68.3923 21.6709 68.316 21.11C68.1709 20.0401 67.6594 19.1943 66.6398 18.7322C64.7452 17.8743 62.6209 18.9662 62.2798 21.0187C62.1518 21.7886 62.1904 22.5889 62.1826 23.3755C62.1783 23.804 62.1959 24.2402 62.2711 24.6608C62.5319 26.1256 63.7016 27.1374 65.1433 27.1819C66.6984 27.2302 67.9193 26.3576 68.2433 24.8719C68.3889 24.205 68.3732 23.503 68.4138 23.0227Z" fill="#3C2D89"/>
<path d="M83.1044 25.5785C83.846 26.0059 84.5696 26.4237 85.3087 26.8497C84.7592 27.7961 84.0248 28.5299 83.0502 29.0136C82.1513 29.4596 81.1883 29.6257 80.195 29.655C79.1158 29.6867 78.0464 29.6271 77.0218 29.2471C75.1517 28.5533 73.9786 27.224 73.6503 25.2653C73.3635 23.5539 73.3313 21.8107 73.7373 20.109C74.279 17.8376 76.031 16.3324 78.3517 16.0535C79.6112 15.902 80.8692 15.8785 82.0911 16.2953C84.0748 16.9715 85.2648 18.3703 85.5824 20.4163C85.7539 21.5235 85.705 22.6647 85.7574 23.8259H76.951C76.7326 25.9083 77.7425 27.5317 80.0353 27.4828C81.2298 27.4575 82.1068 26.8537 82.8206 25.9546C82.911 25.8403 82.9959 25.722 83.1044 25.5785ZM76.9158 21.6998H82.4957C82.4732 21.3045 82.4785 20.9292 82.4257 20.5619C82.268 19.4685 81.7369 18.6467 80.6513 18.2647C79.2286 17.7639 77.7503 18.3902 77.2026 19.726C76.9451 20.3538 76.8885 21.0128 76.9158 21.6998Z" fill="#3C2D89"/>
<path d="M87.8906 16.2935H91.0075V18.0392C91.0345 18.0567 91.0615 18.0749 91.0886 18.0924C91.0951 18.0592 91.0935 18.023 91.1082 17.9937C91.6567 16.8554 92.6146 16.2823 93.8181 16.0722C94.7653 15.9071 95.7183 15.8944 96.6496 16.1577C98.2719 16.617 99.2076 17.7357 99.5645 19.3436C99.6849 19.8859 99.7366 20.4536 99.7411 21.0101C99.7574 23.7006 99.7483 26.3906 99.7483 29.0811C99.7483 29.1603 99.7393 29.2394 99.7338 29.3327H96.4486C96.4486 29.2341 96.4486 29.1403 96.4486 29.046C96.4486 26.567 96.4536 24.088 96.4437 21.6086C96.4421 21.2377 96.411 20.8577 96.3242 20.4991C96.0425 19.3441 95.2541 18.7134 93.9688 18.6596C92.7678 18.6098 91.6461 19.1413 91.2965 20.5626C91.208 20.9212 91.1786 21.3018 91.177 21.6721C91.1671 24.1266 91.1721 26.5816 91.1721 29.0362V29.3347H87.8906V16.2935Z" fill="#3C2D89"/>
<path d="M123.921 14.1191H120.137V11.6484H130.998V14.124H127.209V26.8252H130.996V29.3153H120.138V26.8486H123.921V14.1191Z" fill="#3C2D89"/>
<mask id="mask0_406_271" style="mask-type:luminance" maskUnits="userSpaceOnUse" x="171" y="8" width="125" height="24">
<path d="M296 8H171V31.1854H296V8Z" fill="white"/>
</mask>
<g mask="url(#mask0_406_271)">
<mask id="mask1_406_271" style="mask-type:luminance" maskUnits="userSpaceOnUse" x="171" y="8" width="125" height="23">
<path d="M296 8H171V30.3992H296V8Z" fill="white"/>
</mask>
<g mask="url(#mask1_406_271)">
<path fill-rule="evenodd" clip-rule="evenodd" d="M180.656 24.5483L175.115 18.9827C174.174 18.037 172.648 18.037 171.706 18.9827C170.765 19.9285 170.765 21.4617 171.706 22.4077L178.951 29.6857C179.892 30.6315 181.419 30.6315 182.36 29.6857L189.179 22.8352L185.77 19.4102L180.656 24.5483Z" fill="#3C2D89"/>
<path fill-rule="evenodd" clip-rule="evenodd" d="M201.54 13.8591L190.887 24.5612L180.233 13.8579C179.291 12.9119 177.765 12.9119 176.823 13.8579C175.882 14.8037 175.882 16.3369 176.823 17.2829L189.182 29.6987C190.124 30.6445 191.65 30.6445 192.592 29.6987L204.95 17.2841C205.891 16.3382 205.891 14.8048 204.95 13.8591C204.008 12.9134 202.482 12.9134 201.54 13.8591Z" fill="#3C2D89"/>
<path fill-rule="evenodd" clip-rule="evenodd" d="M210.067 22.4113L202.823 29.688C201.882 30.6339 200.355 30.6339 199.414 29.688L181.94 12.1341C180.999 11.1885 180.999 9.65525 181.94 8.70951C182.882 7.7635 184.408 7.7635 185.35 8.70951L201.118 24.5506L206.657 18.9863C207.599 18.0407 209.125 18.0407 210.067 18.9863C211.008 19.9324 211.008 21.4657 210.067 22.4113Z" fill="#3C2D89"/>
<path fill-rule="evenodd" clip-rule="evenodd" d="M199.828 8.71712C198.887 7.77138 197.361 7.77138 196.419 8.71712L185.766 19.4193L189.175 22.8442L199.828 12.142C200.77 11.196 200.77 9.66277 199.828 8.71712Z" fill="#3C2D89"/>
<path fill-rule="evenodd" clip-rule="evenodd" d="M223.246 10.3844H220.281V27.8784H231.143V25.2365H223.246V10.3844ZM237.559 15.6445C239.362 15.6445 240.571 16.3823 241.236 17.2867L241.378 15.8825H243.939V27.8784H241.378L241.236 26.4742C240.571 27.3786 239.362 28.1164 237.559 28.1164C234.31 28.1164 232.105 25.4745 232.105 21.8804C232.105 18.2626 234.31 15.6445 237.559 15.6445ZM238.176 18.1674C236.326 18.1674 234.998 19.6193 234.998 21.8804C234.998 24.1416 236.326 25.5935 238.176 25.5935C239.599 25.5935 240.453 24.8318 241.093 23.8084V19.9525C240.453 18.9291 239.599 18.1674 238.176 18.1674ZM251.114 11.86H248.268V15.8825H246.015V18.3103H248.268V23.6418C248.268 26.5456 250 28.1164 252.727 28.1164C253.913 28.1164 254.79 27.7833 255.383 27.4024L254.624 25.1651C254.268 25.3793 253.747 25.5459 252.988 25.5459C251.873 25.5459 251.114 24.8318 251.114 23.6179V18.3103H254.719V15.8825H251.114V11.86ZM260.922 11.86H258.076V15.8825H255.823V18.3103H258.076V23.6418C258.076 26.5456 259.807 28.1164 262.535 28.1164C263.72 28.1164 264.597 27.7833 265.19 27.4024L264.431 25.1651C264.075 25.3793 263.555 25.5459 262.796 25.5459C261.681 25.5459 260.922 24.8318 260.922 23.6179V18.3103H264.527V15.8825H260.922V11.86ZM269.946 15.8825H267.1V27.8784H269.946V15.8825ZM268.524 10.2891C267.527 10.2891 266.768 11.027 266.768 12.0505C266.768 13.0738 267.527 13.8117 268.524 13.8117C269.544 13.8117 270.303 13.0738 270.303 12.0505C270.303 11.027 269.544 10.2891 268.524 10.2891ZM278.545 15.6445C274.868 15.6445 272.426 18.2626 272.426 21.8804C272.426 25.4745 274.892 28.1164 278.568 28.1164C280.726 28.1164 282.362 27.1406 283.43 25.4745L281.391 23.8798C280.821 24.8318 279.897 25.6173 278.592 25.6173C276.481 25.6173 275.318 23.9749 275.318 21.8804C275.318 19.7621 276.434 18.1436 278.568 18.1436C279.897 18.1436 280.774 18.9052 281.319 19.8574L283.383 18.2864C282.315 16.6203 280.726 15.6445 278.545 15.6445ZM290.392 15.6445C294.068 15.6445 295.87 18.4055 295.87 21.7614V22.7611H287.427C287.498 24.6652 288.636 25.7124 290.628 25.7124C292.027 25.7124 293.047 25.0937 293.593 24.332L295.562 25.9505C294.375 27.3786 292.811 28.1164 290.605 28.1164C286.905 28.1164 284.534 25.4982 284.534 21.9042C284.534 18.2864 286.953 15.6445 290.392 15.6445ZM290.344 17.9294C288.661 17.9294 287.522 19.048 287.427 20.7142H293.072C293 19.0719 292.052 17.9294 290.344 17.9294Z" fill="#3C2D89"/>
</g>
</g>
<path d="M388.426 20.7278L386.55 15.6689C386.475 15.4619 386.181 15.4619 386.104 15.6689L384.228 20.7278C384.215 20.7637 384.21 20.8024 384.215 20.8405C384.22 20.8786 384.234 20.9148 384.256 20.9464C384.278 20.9779 384.307 21.0036 384.341 21.0212C384.375 21.0389 384.413 21.0481 384.451 21.0479H388.203C388.241 21.0481 388.279 21.0389 388.313 21.0212C388.347 21.0036 388.376 20.9779 388.398 20.9464C388.42 20.9148 388.434 20.8786 388.439 20.8405C388.444 20.8024 388.439 20.7637 388.426 20.7278ZM389.293 23.5703H383.372C383.324 23.5702 383.276 23.5851 383.236 23.6128C383.197 23.6406 383.166 23.6799 383.149 23.7256L381.982 26.8732C381.965 26.9188 381.935 26.9582 381.895 26.986C381.855 27.0138 381.807 27.0286 381.759 27.0285H379.188C379.149 27.0287 379.11 27.0193 379.076 27.001C379.041 26.9829 379.012 26.9565 378.99 26.9242C378.968 26.8919 378.955 26.8548 378.95 26.8159C378.946 26.7771 378.952 26.738 378.967 26.7018L384.896 11.9553C384.913 11.9112 384.944 11.8735 384.983 11.847C385.023 11.8205 385.069 11.8064 385.116 11.8066H387.579C387.626 11.8064 387.673 11.8205 387.712 11.847C387.751 11.8735 387.782 11.9112 387.8 11.9553L393.728 26.7018C393.743 26.738 393.749 26.7771 393.745 26.8159C393.741 26.8548 393.727 26.8919 393.705 26.9242C393.683 26.9565 393.654 26.9829 393.619 27.001C393.585 27.0193 393.546 27.0287 393.507 27.0285H390.918C390.869 27.0286 390.822 27.0138 390.782 26.986C390.742 26.9582 390.712 26.9188 390.695 26.8732L389.528 23.7256C389.511 23.6799 389.48 23.6406 389.44 23.6128C389.401 23.5851 389.353 23.5702 389.304 23.5703M394.914 16.9819H397.113C397.144 16.9817 397.176 16.9878 397.205 16.9997C397.233 17.0117 397.26 17.0292 397.282 17.0513C397.304 17.0735 397.322 17.0998 397.334 17.1288C397.346 17.1578 397.351 17.1888 397.351 17.2201V26.7924C397.351 26.8237 397.346 26.8548 397.334 26.8837C397.322 26.9127 397.304 26.939 397.282 26.9612C397.26 26.9833 397.233 27.0009 397.205 27.0128C397.176 27.0247 397.144 27.0308 397.113 27.0306H394.914C394.883 27.0308 394.852 27.0247 394.823 27.0128C394.794 27.0009 394.768 26.9833 394.745 26.9612C394.723 26.939 394.706 26.9127 394.694 26.8837C394.682 26.8548 394.676 26.8237 394.676 26.7924V17.1985C394.676 17.1672 394.682 17.1361 394.694 17.1072C394.706 17.0783 394.723 17.052 394.745 17.0298C394.768 17.0076 394.794 16.9901 394.823 16.9781C394.852 16.9663 394.883 16.9602 394.914 16.9603M405.37 19.2887C405.37 19.32 405.364 19.3511 405.352 19.38C405.341 19.409 405.323 19.4353 405.301 19.4575C405.279 19.4796 405.252 19.4972 405.223 19.5091C405.194 19.521 405.163 19.527 405.132 19.5269H405.065C403.987 19.5269 403.179 19.7878 402.672 20.3095C402.165 20.8313 401.911 21.6936 401.911 22.8966V26.7687C401.911 26.8 401.905 26.8311 401.893 26.86C401.881 26.8889 401.864 26.9153 401.842 26.9375C401.82 26.9596 401.793 26.9772 401.764 26.9891C401.735 27.001 401.704 27.007 401.673 27.007H399.495C399.464 27.007 399.433 27.001 399.404 26.9891C399.375 26.9772 399.349 26.9596 399.327 26.9375C399.305 26.9153 399.287 26.8889 399.275 26.86C399.263 26.8311 399.257 26.8 399.257 26.7687V17.2094C399.257 17.178 399.263 17.1469 399.275 17.118C399.287 17.0891 399.305 17.0627 399.327 17.0405C399.349 17.0184 399.375 17.0009 399.404 16.9889C399.433 16.977 399.464 16.9709 399.495 16.9711H401.651C401.683 16.9709 401.714 16.977 401.743 16.9889C401.772 17.0009 401.798 17.0184 401.82 17.0405C401.842 17.0627 401.86 17.0891 401.872 17.118C401.884 17.1469 401.89 17.178 401.89 17.2094V19.1022H401.933C402.194 18.3196 402.606 17.7181 403.172 17.2977C403.738 16.8773 404.434 16.6671 405.259 16.6671H405.367L405.37 19.2887ZM411.383 19.2003C411.352 19.2002 411.321 19.2063 411.292 19.2181C411.263 19.2301 411.237 19.2476 411.214 19.2697C411.192 19.2919 411.175 19.3182 411.162 19.3471C411.151 19.3762 411.144 19.4072 411.145 19.4386V23.4195C411.145 23.8258 411.225 24.1147 411.384 24.2893C411.543 24.464 411.819 24.5503 412.21 24.5503H412.429C412.46 24.5501 412.491 24.5562 412.52 24.5681C412.549 24.5801 412.575 24.5975 412.597 24.6197C412.62 24.6419 412.637 24.6682 412.649 24.6971C412.661 24.7261 412.667 24.7571 412.667 24.7885V26.8032C412.667 26.8345 412.661 26.8655 412.649 26.8945C412.637 26.9235 412.62 26.9498 412.597 26.972C412.575 26.9941 412.549 27.0117 412.52 27.0236C412.491 27.0355 412.46 27.0416 412.429 27.0414H411.491C410.521 27.0414 409.773 26.7913 409.251 26.2911C408.729 25.7909 408.468 25.0483 408.468 24.0619V19.4504C408.469 19.4191 408.463 19.388 408.451 19.359C408.439 19.3301 408.421 19.3037 408.399 19.2816C408.377 19.2595 408.35 19.2419 408.322 19.23C408.293 19.2181 408.261 19.2121 408.23 19.2122H406.858C406.827 19.2123 406.796 19.2063 406.767 19.1944C406.738 19.1824 406.711 19.1648 406.689 19.1428C406.667 19.1205 406.649 19.0942 406.638 19.0653C406.626 19.0363 406.62 19.0052 406.62 18.9739V17.2094C406.62 17.178 406.626 17.1469 406.638 17.118C406.649 17.0891 406.667 17.0627 406.689 17.0405C406.711 17.0184 406.738 17.0009 406.767 16.9889C406.796 16.977 406.827 16.9709 406.858 16.9711H408.23C408.261 16.9712 408.293 16.9651 408.322 16.9532C408.35 16.9413 408.377 16.9238 408.399 16.9016C408.421 16.8795 408.439 16.8531 408.451 16.8242C408.463 16.7953 408.469 16.7642 408.468 16.7329V13.1756C408.468 13.1442 408.474 13.1132 408.486 13.0843C408.498 13.0554 408.516 13.029 408.538 13.0068C408.56 12.9847 408.586 12.9672 408.615 12.9552C408.644 12.9433 408.675 12.9372 408.707 12.9373H410.906C410.937 12.9372 410.968 12.9433 410.997 12.9552C411.026 12.9672 411.052 12.9847 411.075 13.0068C411.097 13.029 411.114 13.0554 411.126 13.0843C411.138 13.1132 411.144 13.1442 411.144 13.1756V16.7329C411.144 16.7642 411.15 16.7953 411.162 16.8242C411.174 16.8531 411.191 16.8795 411.213 16.9016C411.235 16.9238 411.261 16.9413 411.291 16.9532C411.32 16.9651 411.351 16.9712 411.382 16.9711H412.972C413.004 16.9709 413.035 16.977 413.064 16.9889C413.092 17.0009 413.119 17.0184 413.141 17.0405C413.163 17.0627 413.181 17.0891 413.193 17.118C413.205 17.1469 413.211 17.178 413.21 17.2094V18.9739C413.211 19.0052 413.205 19.0363 413.193 19.0653C413.181 19.0942 413.163 19.1205 413.141 19.1428C413.119 19.1648 413.092 19.1824 413.064 19.1944C413.035 19.2063 413.004 19.2123 412.972 19.2122L411.383 19.2003ZM421.451 24.0274C421.951 23.5057 422.202 22.8244 422.202 21.9837C422.202 21.1428 421.951 20.4615 421.451 19.9397C420.951 19.4181 420.295 19.1572 419.483 19.1572C418.672 19.1572 418.017 19.4181 417.514 19.9397C417.013 20.4615 416.764 21.1428 416.764 21.9837C416.764 22.8244 417.015 23.5057 417.514 24.0274C418.015 24.5491 418.67 24.81 419.483 24.81C420.296 24.81 420.951 24.5491 421.451 24.0274ZM416.385 26.7008C415.636 26.2705 415.027 25.632 414.634 24.8629C414.206 24.0587 413.993 23.0982 413.993 21.9815C413.993 20.8647 414.206 19.9053 414.634 19.1001C415.062 18.2948 415.645 17.6837 416.385 17.2622C417.127 16.841 417.967 16.6234 418.82 16.6315C419.602 16.6315 420.273 16.7825 420.831 17.0886C421.39 17.3947 421.834 17.8215 422.168 18.3821H422.212V17.2094C422.211 17.178 422.217 17.1469 422.229 17.118C422.241 17.0891 422.259 17.0627 422.281 17.0405C422.303 17.0184 422.33 17.0009 422.358 16.9889C422.387 16.977 422.418 16.9709 422.45 16.9711H424.627C424.658 16.9709 424.69 16.977 424.719 16.9889C424.747 17.0009 424.773 17.0184 424.795 17.0405C424.818 17.0627 424.835 17.0891 424.848 17.118C424.859 17.1469 424.865 17.178 424.865 17.2094V26.7816C424.865 26.8129 424.859 26.844 424.848 26.873C424.835 26.9019 424.818 26.9283 424.795 26.9504C424.773 26.9725 424.747 26.9901 424.719 27.002C424.69 27.0139 424.658 27.0199 424.627 27.0199H422.45C422.418 27.0199 422.387 27.0139 422.358 27.002C422.33 26.9901 422.303 26.9725 422.281 26.9504C422.259 26.9283 422.241 26.9019 422.229 26.873C422.217 26.844 422.211 26.8129 422.212 26.7816V25.5959H422.168C421.845 26.1348 421.389 26.5746 420.831 26.8894C420.274 27.2042 419.602 27.3464 418.82 27.3464C417.936 27.3464 417.124 27.1362 416.384 26.7159M433.92 24.0425C434.42 23.5208 434.67 22.8394 434.67 21.9987C434.67 21.1578 434.42 20.4766 433.92 19.9549C433.42 19.4332 432.764 19.1723 431.952 19.1723C431.14 19.1723 430.484 19.4332 429.984 19.9549C429.483 20.4766 429.233 21.1578 429.233 21.9987C429.233 22.8394 429.483 23.5208 429.984 24.0425C430.484 24.5643 431.139 24.8252 431.952 24.8252C432.764 24.8252 433.42 24.5643 433.92 24.0425ZM430.615 26.8916C430.062 26.5923 429.599 26.1491 429.278 25.6088H429.234V26.7945C429.234 26.8258 429.228 26.8569 429.216 26.8859C429.204 26.9148 429.187 26.9412 429.165 26.9634C429.143 26.9854 429.117 27.003 429.087 27.015C429.059 27.0268 429.027 27.0329 428.996 27.0328H426.797C426.766 27.0329 426.735 27.0268 426.706 27.015C426.676 27.003 426.65 26.9854 426.628 26.9634C426.606 26.9412 426.589 26.9148 426.577 26.8859C426.564 26.8569 426.558 26.8258 426.558 26.7945V12.0351C426.558 12.0038 426.564 11.9728 426.577 11.9438C426.589 11.9148 426.606 11.8885 426.628 11.8664C426.65 11.8442 426.676 11.8266 426.706 11.8148C426.735 11.8028 426.766 11.7967 426.797 11.7969H428.996C429.027 11.7967 429.059 11.8028 429.087 11.8148C429.117 11.8266 429.143 11.8442 429.165 11.8664C429.187 11.8885 429.204 11.9148 429.216 11.9438C429.228 11.9728 429.234 12.0038 429.234 12.0351V18.395H429.278C429.599 17.8548 430.062 17.4116 430.615 17.1123C431.173 16.8073 431.844 16.6552 432.626 16.6552C433.48 16.6471 434.32 16.8647 435.061 17.2859C435.801 17.717 436.384 18.3185 436.813 19.1238C437.24 19.929 437.453 20.8894 437.453 22.0052C437.453 23.1209 437.238 24.0824 436.813 24.8866C436.386 25.6907 435.801 26.3041 435.061 26.7245C434.322 27.1448 433.509 27.3551 432.625 27.3551C431.843 27.3551 431.172 27.2042 430.614 26.898M441.156 27.0274H438.957C438.926 27.0275 438.895 27.0215 438.866 27.0096C438.837 26.9976 438.811 26.9801 438.788 26.958C438.767 26.9358 438.749 26.9094 438.737 26.8805C438.726 26.8515 438.719 26.8204 438.719 26.7892V12.0351C438.719 12.0038 438.726 11.9728 438.737 11.9438C438.749 11.9148 438.767 11.8885 438.788 11.8664C438.811 11.8442 438.837 11.8266 438.866 11.8148C438.895 11.8028 438.926 11.7967 438.957 11.7969H441.156C441.188 11.7967 441.218 11.8028 441.248 11.8148C441.277 11.8266 441.303 11.8442 441.325 11.8664C441.347 11.8885 441.365 11.9148 441.377 11.9438C441.389 11.9728 441.395 12.0038 441.395 12.0351V26.8032C441.395 26.8345 441.389 26.8655 441.377 26.8945C441.365 26.9235 441.347 26.9498 441.325 26.972C441.303 26.9941 441.277 27.0117 441.248 27.0236C441.218 27.0355 441.188 27.0416 441.156 27.0414M446.343 19.3232C445.98 19.6078 445.732 20.0184 445.605 20.5553C445.571 20.703 445.686 20.8464 445.838 20.8464H450.023C450.168 20.8464 450.282 20.717 450.26 20.5726C450.176 20.0659 449.957 19.6595 449.606 19.3566C449.193 19.0009 448.654 18.8241 447.987 18.8241C447.319 18.8241 446.772 18.9911 446.345 19.3243M451.705 18.0738C452.56 19.0095 452.999 20.3322 452.999 22.0407V22.3253C452.999 22.3566 452.993 22.3876 452.981 22.4167C452.969 22.4457 452.951 22.472 452.93 22.4941C452.908 22.5162 452.881 22.5338 452.852 22.5457C452.822 22.5576 452.792 22.5637 452.761 22.5635H445.769C445.621 22.5635 445.508 22.6983 445.534 22.8438C445.646 23.4906 445.927 23.9843 446.377 24.3583C446.891 24.7863 447.541 24.9997 448.322 24.9997C449.333 24.9997 450.268 24.6053 451.128 23.8161C451.154 23.7936 451.183 23.7766 451.215 23.7664C451.247 23.7562 451.281 23.7529 451.315 23.7567C451.349 23.7606 451.381 23.7716 451.409 23.7889C451.438 23.8062 451.463 23.8294 451.483 23.8571L452.551 25.3921C452.586 25.4399 452.6 25.4984 452.593 25.5566C452.586 25.6146 452.559 25.6681 452.516 25.7068C451.99 26.1667 451.407 26.5546 450.779 26.8603C450.085 27.201 449.265 27.3713 448.322 27.3713C447.243 27.3713 446.273 27.1502 445.472 26.7083C444.675 26.2806 444.018 25.631 443.581 24.8381C443.131 24.0338 442.906 23.1133 442.906 22.044C442.906 20.9746 443.125 20.0497 443.559 19.2391C443.993 18.4285 444.603 17.7968 445.386 17.3472C446.17 16.8978 447.082 16.6735 448.127 16.6735C449.663 16.6735 450.859 17.1414 451.714 18.0749M397.654 13.4612C397.653 13.8918 397.482 14.3046 397.178 14.609C396.873 14.9135 396.46 15.0849 396.03 15.0858C395.599 15.0849 395.186 14.9135 394.882 14.609C394.578 14.3046 394.406 13.8918 394.405 13.4612C394.406 13.0306 394.578 12.618 394.882 12.3135C395.186 12.009 395.599 11.8376 396.03 11.8368C396.46 11.8376 396.873 12.009 397.178 12.3135C397.482 12.618 397.653 13.0306 397.654 13.4612Z" fill="#3C2D89"/>
<path d="M352.617 4.39302L338.735 10.1386C337.963 10.4577 337.98 11.555 338.748 11.8633L352.688 17.391C353.913 17.8767 355.277 17.8767 356.502 17.391L370.442 11.8633C371.218 11.555 371.227 10.4587 370.455 10.1386L356.573 4.39302C355.306 3.86899 353.884 3.86899 352.617 4.39302Z" fill="#3C2D89"/>
<path d="M355.828 20.4046V34.2025C355.828 34.8493 356.49 35.3095 357.1 35.067L372.623 29.038C372.796 28.9696 372.945 28.8506 373.05 28.6964C373.155 28.5421 373.211 28.3599 373.21 28.1734V14.3755C373.21 13.7288 372.548 13.2685 371.938 13.511L356.416 19.54C356.242 19.6083 356.093 19.7274 355.988 19.8816C355.884 20.0358 355.828 20.2181 355.828 20.4046Z" fill="#3C2D89"/>
<path d="M352.203 21.1219L347.136 23.5744L337.405 28.2375C336.788 28.5351 336 28.0867 336 27.4V14.4386C336 14.1908 336.127 13.9751 336.298 13.8155C336.367 13.746 336.446 13.6865 336.533 13.6388C336.66 13.5659 336.802 13.5222 336.948 13.5108C337.095 13.4994 337.242 13.5207 337.379 13.573L352.147 19.4199C352.897 19.7174 352.955 20.7673 352.224 21.123" fill="#3C2D89"/>
<path d="M537.635 9.36263V30.6251C537.635 31.3739 537.018 31.9878 536.266 31.9878C535.514 31.9878 534.897 31.3739 534.897 30.6251V9.36263C534.897 8.61382 535.514 8 536.266 8C537.018 8 537.635 8.60153 537.635 9.36263ZM549.229 15.5867C544.69 15.5867 540.99 19.2696 540.99 23.7872C540.99 28.3049 544.69 31.9878 549.229 31.9878C551.684 31.9878 554.027 31.0056 555.68 29.287C556.198 28.7468 556.186 27.8752 555.631 27.3596C555.088 26.844 554.212 26.8562 553.694 27.4087C552.559 28.5872 550.931 29.2624 549.229 29.2624C546.195 29.2624 543.74 26.8071 543.74 23.7995C543.74 20.7918 546.208 18.3366 549.229 18.3366C551.585 18.3366 553.571 19.957 554.114 22.1299H547.392C546.639 22.1299 546.022 22.7438 546.022 23.4926C546.022 24.2415 546.639 24.8553 547.392 24.8553H555.631C556.383 24.8553 557 24.2415 557 23.4926V23.3453C557.012 19.0609 553.521 15.5867 549.229 15.5867ZM490.26 22.4492C486.584 21.8845 485.943 21.4179 485.943 20.3622C485.943 19.3432 487.287 18.312 489.853 18.312C491.111 18.312 492.924 18.5699 494.379 19.7606C494.959 20.2394 495.835 20.1535 496.316 19.5765C496.797 18.9872 496.71 18.1279 496.131 17.6491C494.034 15.9427 491.567 15.5744 489.853 15.5744C485.277 15.5744 483.192 18.0542 483.192 20.3622C483.192 21.5406 483.624 23.1611 485.696 24.131C486.905 24.6957 488.397 24.9289 489.84 25.1499C493.491 25.7024 494.133 26.1688 494.133 27.2C494.133 28.4276 492.591 29.2501 490.297 29.2501C487.867 29.2501 486.017 28.2681 485.129 27.6788C484.5 27.2614 483.649 27.4333 483.229 28.0593C482.81 28.6855 482.983 29.5325 483.612 29.9499C485.585 31.2512 487.966 31.9754 490.297 31.9754C494.848 31.9754 496.883 29.5694 496.883 27.1877C496.883 23.4558 493.06 22.8787 490.26 22.4492ZM506.96 18.3243C508.65 18.3243 510.216 19.1591 511.154 20.5708C511.573 21.1969 512.424 21.3688 513.053 20.9515C513.682 20.534 513.855 19.6869 513.436 19.0609C511.992 16.888 509.563 15.599 506.948 15.599C502.409 15.599 498.709 19.2819 498.709 23.7995C498.709 28.3172 502.409 32 506.948 32C509.563 32 511.98 30.6988 513.436 28.5381C513.855 27.912 513.682 27.065 513.053 26.6476C512.424 26.2302 511.573 26.4021 511.154 27.0281C510.216 28.4276 508.65 29.2746 506.96 29.2746C503.926 29.2746 501.471 26.8194 501.471 23.8118C501.471 20.8041 503.926 18.3243 506.96 18.3243ZM523.747 15.5867C519.208 15.5867 515.508 19.2696 515.508 23.7872C515.508 28.3049 519.208 31.9878 523.747 31.9878H524.66C525.412 31.9878 526.029 31.3739 526.029 30.6251C526.029 29.8763 525.412 29.2624 524.66 29.2624H523.747C520.713 29.2624 518.258 26.8071 518.258 23.7995C518.258 20.7918 520.725 18.3366 523.747 18.3366C526.522 18.3366 528.779 20.5831 528.779 23.3453V30.6374C528.779 31.3863 529.396 32 530.148 32C530.901 32 531.517 31.3863 531.517 30.6374V23.3453C531.53 19.0609 528.039 15.5867 523.747 15.5867Z" fill="#3C2D89"/>
</svg>
