<svg width="138" height="50" viewBox="0 0 138 50" fill="none" xmlns="http://www.w3.org/2000/svg">
<mask id="mask0_406_223" style="mask-type:luminance" maskUnits="userSpaceOnUse" x="0" y="12" width="138" height="26">
<path d="M138 12H0V37.5967H138V12Z" fill="white"/>
</mask>
<g mask="url(#mask0_406_223)">
<mask id="mask1_406_223" style="mask-type:luminance" maskUnits="userSpaceOnUse" x="0" y="12" width="138" height="25">
<path d="M138 12H0V36.7287H138V12Z" fill="white"/>
</mask>
<g mask="url(#mask1_406_223)">
<path fill-rule="evenodd" clip-rule="evenodd" d="M10.6597 30.2712L4.54339 24.1268C3.50409 23.0827 1.81908 23.0827 0.779462 24.1268C-0.259821 25.1709 -0.259821 26.8636 0.779462 27.9079L8.7777 35.9429C9.81699 36.987 11.5024 36.987 12.5417 35.9429L20.0699 28.3799L16.3062 24.5987L10.6597 30.2712Z" fill="#3C2D89"/>
<path fill-rule="evenodd" clip-rule="evenodd" d="M33.7155 18.4643L21.9544 30.2794L10.1918 18.463C9.15219 17.4186 7.46719 17.4186 6.4279 18.463C5.38862 19.5071 5.38862 21.1998 6.4279 22.2442L20.0723 35.9512C21.1117 36.9953 22.7967 36.9953 23.8363 35.9512L37.4794 22.2455C38.5187 21.2012 38.5187 19.5083 37.4794 18.4643C36.4398 17.4202 34.7548 17.4202 33.7155 18.4643Z" fill="#3C2D89"/>
<path fill-rule="evenodd" clip-rule="evenodd" d="M43.1279 27.9101L35.1309 35.9436C34.0917 36.9878 32.4066 36.9878 31.3673 35.9436L12.0763 16.5641C11.0371 15.5201 11.0371 13.8274 12.0763 12.7833C13.1159 11.7389 14.8009 11.7389 15.8402 12.7833L33.2489 30.2719L39.3639 24.1289C40.4035 23.0849 42.0886 23.0849 43.1279 24.1289C44.1671 25.1734 44.1671 26.8661 43.1279 27.9101Z" fill="#3C2D89"/>
<path fill-rule="evenodd" clip-rule="evenodd" d="M31.8259 12.7909C30.7866 11.7468 29.1016 11.7468 28.0619 12.7909L16.3008 24.6061L20.0647 28.3872L31.8259 16.572C32.8652 15.5276 32.8652 13.8349 31.8259 12.7909Z" fill="#3C2D89"/>
<path fill-rule="evenodd" clip-rule="evenodd" d="M57.6791 14.6286H54.4062V33.942H66.3981V31.0254H57.6791V14.6286ZM73.4813 20.4358C75.4713 20.4358 76.8066 21.2503 77.5398 22.2488L77.6968 20.6985H80.5246V33.942H77.6968L77.5398 32.3918C76.8066 33.3902 75.4713 34.2048 73.4813 34.2048C69.8942 34.2048 67.4593 31.2881 67.4593 27.3202C67.4593 23.3262 69.8942 20.4358 73.4813 20.4358ZM74.1621 23.2211C72.1198 23.2211 70.6536 24.824 70.6536 27.3202C70.6536 29.8166 72.1198 31.4195 74.1621 31.4195C75.7331 31.4195 76.6756 30.5786 77.3826 29.4487V25.1918C76.6756 24.062 75.7331 23.2211 74.1621 23.2211ZM88.4457 16.2577H85.3038V20.6985H82.8168V23.3788H85.3038V29.2648C85.3038 32.4706 87.2153 34.2048 90.2264 34.2048C91.5353 34.2048 92.504 33.837 93.1589 33.4165L92.3209 30.9465C91.9277 31.183 91.3521 31.3669 90.5141 31.3669C89.2836 31.3669 88.4457 30.5786 88.4457 29.2384V23.3788H92.4255V20.6985H88.4457V16.2577ZM99.2732 16.2577H96.1312V20.6985H93.6441V23.3788H96.1312V29.2648C96.1312 32.4706 98.0427 34.2048 101.054 34.2048C102.363 34.2048 103.331 33.837 103.986 33.4165L103.148 30.9465C102.755 31.183 102.18 31.3669 101.342 31.3669C100.111 31.3669 99.2732 30.5786 99.2732 29.2384V23.3788H103.253V20.6985H99.2732V16.2577ZM109.236 20.6985H106.094V33.942H109.236V20.6985ZM107.666 14.5234C106.566 14.5234 105.728 15.3381 105.728 16.468C105.728 17.5978 106.566 18.4124 107.666 18.4124C108.792 18.4124 109.63 17.5978 109.63 16.468C109.63 15.3381 108.792 14.5234 107.666 14.5234ZM118.729 20.4358C114.67 20.4358 111.974 23.3262 111.974 27.3202C111.974 31.2881 114.697 34.2048 118.755 34.2048C121.137 34.2048 122.943 33.1275 124.122 31.2881L121.871 29.5276C121.242 30.5786 120.222 31.4458 118.781 31.4458C116.451 31.4458 115.167 29.6326 115.167 27.3202C115.167 24.9816 116.399 23.1948 118.755 23.1948C120.222 23.1948 121.19 24.0356 121.792 25.0868L124.07 23.3525C122.891 21.5131 121.137 20.4358 118.729 20.4358ZM131.808 20.4358C135.867 20.4358 137.856 23.4839 137.856 27.1889V28.2925H128.535C128.613 30.3947 129.87 31.5508 132.069 31.5508C133.614 31.5508 134.74 30.8677 135.342 30.0268L137.516 31.8136C136.206 33.3902 134.479 34.2048 132.044 34.2048C127.959 34.2048 125.341 31.3143 125.341 27.3465C125.341 23.3525 128.012 20.4358 131.808 20.4358ZM131.755 22.9583C129.897 22.9583 128.64 24.1933 128.535 26.0327H134.767C134.688 24.2196 133.641 22.9583 131.755 22.9583Z" fill="#3C2D89"/>
</g>
</g>
</svg>
