<svg width="138" height="50" viewBox="0 0 138 50" fill="none" xmlns="http://www.w3.org/2000/svg">
<path d="M0 21.6795C0.10302 21.1364 0.158037 20.5788 0.316075 20.0518C1.27345 16.8663 3.35541 14.8221 6.59054 13.9785C6.7599 13.9343 6.83649 13.8517 6.89801 13.6937C8.15363 10.4699 10.5015 8.54922 13.9216 8.08536C16.7393 7.70295 19.181 8.61341 21.1767 10.6554C21.3136 10.7957 21.4355 10.8307 21.6211 10.7978C26.3988 9.95751 30.8831 13.1473 31.6312 17.9261C31.8238 19.1559 31.7499 20.3776 31.3826 21.5723C31.3151 21.7913 31.3351 21.9396 31.4905 22.1246C35.581 27.0102 33.1102 34.4766 26.9182 35.9507C26.7651 35.9874 26.6826 36.0527 26.6221 36.2085C25.3665 39.4409 23.0138 41.3169 19.5898 41.8601C19.4404 41.8838 19.2905 41.9048 19.1405 41.927H17.9005C17.859 41.9129 17.818 41.8897 17.7754 41.8859C15.6001 41.6853 13.7722 40.7781 12.2696 39.1982C12.208 39.1335 12.0651 39.1023 11.9713 39.1184C10.9076 39.3002 9.84346 39.3147 8.78415 39.1119C3.70815 38.14 0.681219 32.9971 2.15478 28.2454C2.20278 28.09 2.17797 27.9875 2.07117 27.8635C1.18769 26.8429 0.576048 25.6773 0.263218 24.3641C0.153184 23.9055 0.0862992 23.4364 0 22.972C0 22.541 0 22.1105 0 21.6795ZM14.8429 29.8914C14.7355 29.8267 14.6454 29.7696 14.5527 29.7162C12.0807 28.2912 9.61153 26.8618 7.13364 25.447C6.62883 25.1585 6.39474 24.7729 6.39852 24.1838C6.41416 21.6893 6.40499 19.1947 6.40499 16.6996V16.3436C6.26638 16.397 6.15742 16.431 6.05549 16.4795C3.68981 17.6063 2.35003 19.4746 2.25078 22.0884C2.1564 24.5868 3.26156 26.5301 5.41687 27.8159C7.52039 29.0706 9.65736 30.2691 11.7761 31.4977C11.9055 31.5727 11.9933 31.5629 12.1147 31.4923C12.967 30.9939 13.8229 30.5031 14.6773 30.0085C14.7301 29.9778 14.7771 29.9379 14.8429 29.8914ZM18.6664 20.0054C18.7678 20.0702 18.8396 20.1192 18.914 20.1623C21.4081 21.6024 23.8983 23.048 26.3988 24.4762C26.9085 24.7674 27.1286 25.1596 27.1253 25.7437C27.1113 28.2469 27.1194 30.7502 27.1194 33.2534C27.1194 33.3477 27.1194 33.4426 27.1194 33.5704C27.2564 33.5187 27.3573 33.4864 27.4538 33.4432C28.7936 32.8456 29.8287 31.9227 30.519 30.6174C32.1307 27.5695 31.1242 23.8921 28.155 22.1337C26.0326 20.8765 23.8816 19.6678 21.7467 18.4315C21.6017 18.3473 21.4997 18.3549 21.359 18.4375C20.5698 18.9013 19.7748 19.3533 18.982 19.8107C18.8844 19.8668 18.79 19.9288 18.6664 20.0054ZM19.0483 11.6889C18.9474 11.6085 18.8795 11.5503 18.8078 11.4979C17.3018 10.4009 15.6287 10.0039 13.7916 10.3183C10.9416 10.8065 8.66059 13.4386 8.62878 16.3242C8.60076 18.863 8.61857 21.4023 8.62661 23.9411C8.62661 24.0382 8.70913 24.1758 8.79382 24.226C9.63476 24.7249 10.4837 25.2103 11.3315 25.6973C11.3871 25.7291 11.4519 25.7459 11.5344 25.7788C11.5344 25.6348 11.5344 25.5274 11.5344 25.4201C11.5344 22.549 11.5393 19.678 11.53 16.8069C11.5284 16.2654 11.7367 15.889 12.2096 15.6236C13.2345 15.0486 14.249 14.4553 15.2673 13.8684C16.5182 13.1479 17.7689 12.4267 19.0494 11.6889H19.0483ZM14.4982 38.2274C14.5225 38.2614 14.5343 38.2867 14.5538 38.3034C14.6152 38.3558 14.6784 38.4065 14.7431 38.4545C15.9335 39.3358 17.2787 39.7387 18.7511 39.7171C22.0321 39.6697 24.8459 36.8746 24.8972 33.5651C24.9361 31.0447 24.9091 28.5226 24.901 26.0016C24.901 25.9039 24.8174 25.7664 24.7321 25.7157C23.8837 25.2124 23.0267 24.7227 22.1707 24.2308C22.1222 24.2027 22.065 24.1893 21.9932 24.1623C21.9932 24.2966 21.9932 24.4039 21.9932 24.5113C21.9932 27.3646 21.9857 30.2178 21.9992 33.0711C22.0019 33.6584 21.7743 34.0489 21.2656 34.3347C19.9356 35.0812 18.619 35.8504 17.297 36.612C16.365 37.1487 15.434 37.6875 14.4982 38.2274ZM13.4157 20.8479C13.557 20.7713 13.6508 20.7233 13.742 20.6704C16.2129 19.2459 18.687 17.8274 21.1507 16.3905C21.6648 16.0906 22.1227 16.0875 22.6373 16.3884C24.805 17.6564 26.984 18.9051 29.1593 20.1596C29.2343 20.2028 29.3136 20.2384 29.3945 20.2789C29.5411 19.7254 29.5358 18.836 29.387 18.0227C28.8799 15.2557 26.4576 13.0939 23.6599 12.8922C22.3104 12.7946 21.0591 13.0848 19.8913 13.759C17.8024 14.9655 15.7118 16.1705 13.6255 17.3819C13.5386 17.4326 13.4265 17.5405 13.4254 17.623C13.4119 18.6807 13.4157 19.7384 13.4157 20.8479ZM4.12185 29.632C4.10567 29.694 4.09381 29.7264 4.08895 29.7593C3.85109 31.3629 4.17363 32.8521 5.06413 34.1994C6.90876 36.9895 10.5505 37.8644 13.5074 36.2123C15.6611 35.0096 17.7862 33.7549 19.9264 32.5284C20.0629 32.4502 20.106 32.3601 20.1054 32.2086C20.0996 31.2485 20.1027 30.2884 20.1022 29.3283C20.1022 29.2604 20.0947 29.1924 20.0887 29.0829C19.9733 29.1455 19.8886 29.1882 19.8066 29.2356C17.3207 30.6708 14.8315 32.1012 12.3515 33.5473C11.8456 33.8423 11.3909 33.8374 10.8877 33.5424C9.17841 32.5382 7.45676 31.5543 5.73995 30.563C5.20598 30.2544 4.67146 29.9481 4.12185 29.632ZM13.4152 24.9465C13.4152 25.5296 13.4081 26.1126 13.4221 26.6957C13.4243 26.7879 13.4955 26.9174 13.5743 26.9638C14.5705 27.5522 15.5747 28.1261 16.5726 28.7118C16.7091 28.7923 16.8061 28.7814 16.9377 28.7043C17.9205 28.1283 18.9065 27.5576 19.8957 26.9934C20.0386 26.912 20.0931 26.8193 20.0925 26.6547C20.086 25.5156 20.0942 24.3764 20.0812 23.2373C20.0801 23.1316 19.9933 22.9827 19.9022 22.9282C18.9145 22.3424 17.9205 21.7686 16.921 21.2033C16.8352 21.1548 16.6751 21.1499 16.5909 21.1974C15.5834 21.7664 14.5818 22.3457 13.5861 22.9353C13.5014 22.9854 13.4254 23.1251 13.4227 23.2248C13.407 23.7988 13.4152 24.3721 13.4152 24.9465Z" fill="#3C2D89"/>
<path d="M37.8984 26.1771C37.9556 25.1307 37.9572 24.0773 38.0802 23.039C38.5106 19.4129 41.038 16.7894 44.655 16.1901C46.6248 15.8638 48.5827 15.9237 50.4689 16.6362C53.0892 17.6264 54.6484 19.5579 55.2574 22.2575C55.4219 22.9872 55.5072 23.7466 55.5223 24.4948C55.5508 25.9106 55.574 27.3335 55.4705 28.7445C55.292 31.1733 54.361 33.2579 52.3497 34.7525C51.1464 35.6468 49.7699 36.1112 48.2931 36.2853C46.6534 36.479 45.0251 36.4224 43.4436 35.91C40.5332 34.9677 38.8331 32.9369 38.1778 29.985C37.8989 28.7283 37.9539 27.4527 37.8984 26.1771ZM41.6567 26.1895C41.6702 26.19 41.6837 26.1905 41.6971 26.1911C41.6971 26.7294 41.6707 27.2693 41.7042 27.806C41.7436 28.4484 41.7754 29.101 41.9134 29.7261C42.2802 31.3858 43.2084 32.6058 44.8637 33.1765C45.7618 33.486 46.6911 33.5491 47.6291 33.4106C49.374 33.1527 50.634 32.2541 51.3065 30.5961C51.6307 29.7963 51.7682 28.9586 51.7731 28.0999C51.7801 26.8529 51.7915 25.6053 51.7677 24.3583C51.7575 23.8324 51.7068 23.2984 51.5972 22.7849C51.2143 20.9942 50.2267 19.7084 48.415 19.1664C47.6141 18.9269 46.7925 18.8718 45.9619 18.9814C44.3524 19.1933 43.0774 19.9285 42.3665 21.4241C42.0898 22.0056 41.8914 22.6539 41.8105 23.2915C41.6885 24.2483 41.7015 25.2229 41.6567 26.1895Z" fill="#3C2D89"/>
<path d="M123.912 36.0029C122.625 36.0029 121.376 36.0066 120.128 35.9937C120.054 35.9932 119.943 35.8767 119.915 35.7925C119.499 34.5429 119.095 33.2893 118.689 32.0364C118.664 31.9603 118.638 31.8854 118.608 31.7985H118.333C115.97 31.7985 113.607 31.8023 111.244 31.7925C111.022 31.7916 110.938 31.8616 110.874 32.0661C110.49 33.298 110.086 34.5234 109.702 35.7548C109.644 35.9436 109.56 36.0008 109.365 35.9991C108.153 35.9899 106.941 35.9943 105.688 35.9943C105.725 35.8837 105.753 35.7952 105.785 35.7078C108.057 29.3644 110.33 23.0214 112.597 16.6768C112.663 16.4923 112.743 16.4109 112.956 16.4142C114.177 16.432 115.399 16.4395 116.621 16.4309C116.849 16.4293 116.927 16.5167 116.995 16.7103C118.683 21.426 120.376 26.14 122.068 30.8541C122.649 32.4732 123.229 34.093 123.81 35.7122C123.839 35.7958 123.868 35.8794 123.912 36.0029ZM117.72 29.0289C116.745 25.954 115.781 22.9124 114.815 19.8709C114.795 19.872 114.777 19.8725 114.757 19.8736C113.784 22.9173 112.811 25.9615 111.83 29.0289H117.72Z" fill="#3C2D89"/>
<path d="M58.4062 21.5757H61.8382V23.4812C61.8911 23.4532 61.9203 23.4478 61.9311 23.4305C62.7374 22.1285 63.9543 21.4721 65.4317 21.2817C66.7148 21.1161 67.9823 21.2256 69.1743 21.7747C70.9726 22.6037 71.9444 24.0794 72.3479 25.9613C72.4595 26.4834 72.5071 27.0276 72.5119 27.5626C72.5216 28.7012 72.5394 29.8447 72.4558 30.979C72.2315 34.0205 69.849 36.2444 66.7973 36.3327C65.8259 36.3609 64.8776 36.2729 63.9764 35.8829C63.1814 35.5394 62.5351 35.0173 62.0341 34.2816V40.9406H58.4068L58.4062 21.5757ZM68.9024 28.9984C68.8625 28.1387 68.8788 27.506 68.7946 26.8868C68.6344 25.7056 68.0696 24.7719 66.944 24.2617C64.8523 23.3146 62.5071 24.5201 62.1306 26.786C61.9893 27.636 62.0319 28.5195 62.0233 29.3879C62.0185 29.8609 62.0379 30.3425 62.121 30.8069C62.4089 32.424 63.7003 33.541 65.2919 33.5901C67.0088 33.6434 68.3566 32.6801 68.7143 31.0399C68.875 30.3037 68.8576 29.5287 68.9024 28.9984Z" fill="#3C2D89"/>
<path d="M85.1218 31.8216C85.9406 32.2935 86.7394 32.7547 87.5554 33.225C86.9487 34.2698 86.138 35.0799 85.062 35.6139C84.0696 36.1063 83.0065 36.2897 81.9099 36.322C80.7185 36.3571 79.5378 36.2913 78.4067 35.8717C76.3421 35.1058 75.047 33.6382 74.6846 31.4759C74.368 29.5865 74.3324 27.662 74.7806 25.7834C75.3787 23.2758 77.3129 21.614 79.8749 21.3061C81.2654 21.1389 82.6542 21.1129 84.0032 21.5731C86.1931 22.3196 87.5069 23.8638 87.8575 26.1226C88.0469 27.3449 87.9929 28.6048 88.0507 29.8868H78.3285C78.0874 32.1857 79.2023 33.978 81.7336 33.924C83.0523 33.896 84.0205 33.2294 84.8085 32.2369C84.9083 32.1107 85.0021 31.9801 85.1218 31.8216ZM78.2897 27.5396H84.4498C84.425 27.1032 84.4309 26.6889 84.3726 26.2834C84.1985 25.0762 83.6121 24.169 82.4136 23.7473C80.843 23.1944 79.211 23.8858 78.6063 25.3605C78.322 26.0536 78.2595 26.7812 78.2897 27.5396Z" fill="#3C2D89"/>
<path d="M90.4062 21.5711H93.8473V23.4983C93.8771 23.5177 93.9069 23.5377 93.9368 23.5571C93.944 23.5204 93.9422 23.4805 93.9585 23.4481C94.564 22.1914 95.6215 21.5587 96.9502 21.3268C97.9959 21.1445 99.0479 21.1305 100.076 21.4212C101.867 21.9282 102.9 23.1633 103.294 24.9384C103.427 25.5371 103.484 26.1638 103.489 26.7782C103.507 29.7485 103.497 32.7182 103.497 35.6885C103.497 35.7759 103.487 35.8632 103.481 35.9663H99.8542C99.8542 35.8574 99.8542 35.7538 99.8542 35.6497C99.8542 32.9129 99.8597 30.1762 99.8488 27.4389C99.847 27.0295 99.8127 26.6099 99.7169 26.214C99.4059 24.9389 98.5355 24.2426 97.1165 24.1833C95.7906 24.1283 94.5523 24.7151 94.1663 26.2841C94.0687 26.68 94.0362 27.1002 94.0344 27.509C94.0235 30.2188 94.029 32.9291 94.029 35.6389V35.9685H90.4062V21.5711Z" fill="#3C2D89"/>
<path d="M130.186 19.1729H126.008V16.4453H137.999V19.1783H133.816V33.2003H137.996V35.9494H126.009V33.2261H130.186V19.1729Z" fill="#3C2D89"/>
</svg>
