<svg width="31" height="24" viewBox="0 0 31 24" fill="none" xmlns="http://www.w3.org/2000/svg">
<path id="&#226;&#128;&#156;" d="M1.32558 12.5581C0.488372 13.9535 0 15.4884 0 17.0233C0 20.8605 3.13953 24 6.97674 24C10.814 24 13.9535 20.8605 13.9535 17.0233C13.9535 13.9535 11.9302 11.5116 9.76744 10.6047L14.7907 0H9.27907L1.32558 12.5581ZM17.3721 12.5581C16.5349 13.9535 16.0465 15.4884 16.0465 17.0233C16.0465 20.8605 19.186 24 23.0233 24C26.8605 24 30 20.8605 30 17.0233C30 13.9535 27.9767 11.5116 25.814 10.6047L30.8372 0H25.3256L17.3721 12.5581Z" fill="#C8B6FC"/>
</svg>
