<svg width="88" height="50" viewBox="0 0 88 50" fill="none" xmlns="http://www.w3.org/2000/svg">
<path d="M63.5868 13.5182V37.2081C63.5868 38.0424 62.9029 38.7264 62.0686 38.7264C61.2342 38.7264 60.5504 38.0424 60.5504 37.2081V13.5182C60.5504 12.6839 61.2342 12 62.0686 12C62.9029 12 63.5868 12.6702 63.5868 13.5182ZM76.4437 20.4529C71.4102 20.4529 67.3072 24.5562 67.3072 29.5896C67.3072 34.623 71.4102 38.7264 76.4437 38.7264C79.1661 38.7264 81.7644 37.6321 83.5973 35.7173C84.1716 35.1154 84.158 34.1443 83.5427 33.5698C82.941 32.9954 81.9697 33.009 81.3953 33.6245C80.1368 34.9376 78.3312 35.6899 76.4437 35.6899C73.0794 35.6899 70.357 32.9543 70.357 29.6033C70.357 26.2522 73.093 23.5167 76.4437 23.5167C79.0563 23.5167 81.2582 25.3221 81.8605 27.7431H74.4062C73.5719 27.7431 72.8877 28.427 72.8877 29.2613C72.8877 30.0957 73.5719 30.7796 74.4062 30.7796H83.5427C84.3769 30.7796 85.0611 30.0957 85.0611 29.2613V29.0972C85.0747 24.3237 81.2036 20.4529 76.4437 20.4529ZM11.0505 28.0988C6.97453 27.4696 6.26329 26.9498 6.26329 25.7735C6.26329 24.6382 7.75417 23.4893 10.5991 23.4893C11.9943 23.4893 14.0049 23.7766 15.6189 25.1033C16.2617 25.6367 17.2329 25.541 17.7663 24.8981C18.2997 24.2416 18.204 23.2842 17.5611 22.7507C15.2359 20.8495 12.5004 20.4392 10.5991 20.4392C5.52469 20.4392 3.21315 23.2021 3.21315 25.7735C3.21315 27.0865 3.69187 28.892 5.98973 29.9726C7.33016 30.6018 8.98516 30.8616 10.5855 31.1079C14.6341 31.7234 15.3454 32.2431 15.3454 33.392C15.3454 34.7598 13.6356 35.6762 11.0916 35.6762C8.39702 35.6762 6.34536 34.582 5.36056 33.9255C4.66299 33.4604 3.71923 33.6519 3.25418 34.3494C2.78914 35.0471 2.98063 35.9908 3.67819 36.4559C5.86664 37.9057 8.50644 38.7126 11.0916 38.7126C16.1386 38.7126 18.3955 36.0319 18.3955 33.3783C18.3955 29.2203 14.1554 28.5774 11.0505 28.0988ZM29.5702 23.503C31.4441 23.503 33.1811 24.4331 34.2206 26.006C34.6857 26.7036 35.6295 26.8951 36.327 26.4301C37.0246 25.965 37.2161 25.0212 36.751 24.3237C35.1507 21.9027 32.4562 20.4666 29.5565 20.4666C24.5231 20.4666 20.4198 24.5699 20.4198 29.6033C20.4198 34.6367 24.5231 38.74 29.5565 38.74C32.4562 38.74 35.137 37.2902 36.751 34.8829C37.2161 34.1853 37.0246 33.2416 36.327 32.7765C35.6295 32.3115 34.6857 32.503 34.2206 33.2005C33.1811 34.7598 31.4441 35.7035 29.5702 35.7035C26.2055 35.7035 23.4836 32.968 23.4836 29.617C23.4836 26.2659 26.2055 23.503 29.5702 23.503ZM48.1856 20.4529C43.1522 20.4529 39.0489 24.5562 39.0489 29.5896C39.0489 34.623 43.1522 38.7264 48.1856 38.7264H49.1978C50.0321 38.7264 50.716 38.0424 50.716 37.2081C50.716 36.3738 50.0321 35.6899 49.1978 35.6899H48.1856C44.8209 35.6899 42.099 32.9543 42.099 29.6033C42.099 26.2522 44.8346 23.5167 48.1856 23.5167C51.2632 23.5167 53.7662 26.0197 53.7662 29.0972V37.2218C53.7662 38.0562 54.45 38.74 55.2844 38.74C56.1187 38.74 56.8026 38.0562 56.8026 37.2218V29.0972C56.8163 24.3237 52.9455 20.4529 48.1856 20.4529Z" fill="#3C2D89"/>
</svg>
